<?xml version="1.0" standalone="no"?>
<!DOCTYPE svg PUBLIC "-//W3C//DTD SVG 1.1//EN" "http://www.w3.org/Graphics/SVG/1.1/DTD/svg11.dtd">
<svg version="1.1" xmlns="http://www.w3.org/2000/svg" viewBox="0 0 124.81520109019857 105.68225861715791" width="124.81520109019857" height="105.68225861715791"><!-- svg-source:excalidraw --><metadata></metadata><defs><style class="style-fonts">
      </style></defs><g stroke-linecap="round"><g transform="translate(58.155599735238866 48.74928985703491) rotate(0 -0.08559604177116853 5.842225370709002)"><path d="M0 0 C-0.03 1.95, -0.14 9.74, -0.17 11.68 M0 0 C-0.03 1.95, -0.14 9.74, -0.17 11.68" class="trichord_electron" stroke="#9c36b5" stroke-width="4" fill="none"></path></g></g><mask></mask><g stroke-linecap="round"><g transform="translate(58.24586052816085 60.22650106082665) rotate(0 6.043960373091068 -5.734713104199045)"><path d="M0 0 C2.01 -1.91, 10.07 -9.56, 12.09 -11.47 M0 0 C2.01 -1.91, 10.07 -9.56, 12.09 -11.47" class="trichord_electron" stroke="#9c36b5" stroke-width="4" fill="none"></path></g></g><mask></mask><g stroke-linecap="round"><g transform="translate(58.13934406822955 60.85275057595982) rotate(0 6.3415591980601675 6.1415373442441705)"><path d="M0 0 C2.11 2.05, 10.57 10.24, 12.68 12.28 M0 0 C2.11 2.05, 10.57 10.24, 12.68 12.28" class="trichord_electron" stroke="#9c36b5" stroke-width="4" fill="none"></path></g></g><mask></mask><g stroke-linecap="round"><g transform="translate(57.902665374331264 72.72814005150985) rotate(0 12.43111631991269 -12.472589761813424)"><path d="M0 0 C4.14 -4.16, 20.72 -20.79, 24.86 -24.95 M0 0 C4.14 -4.16, 20.72 -20.79, 24.86 -24.95" stroke="#ffffff" stroke-width="4" fill="none"></path></g></g><mask></mask><g stroke-linecap="round"><g transform="translate(82.65724136798599 47.06600448166182) rotate(0 -6.143275717061897 -5.810016071390237)"><path d="M0 0 C-2.05 -1.94, -10.24 -9.68, -12.29 -11.62 M0 0 C-2.05 -1.94, -10.24 -9.68, -12.29 -11.62" stroke="#ffffff" stroke-width="4" fill="none"></path></g></g><mask></mask><g stroke-linecap="round"><g transform="translate(58.42800201431601 35.35413160479811) rotate(718.2226840155579 -6.257868583196796 5.881193849916372)"><path d="M0 0 C-2.09 1.96, -10.43 9.8, -12.52 11.76 M0 0 C-2.09 1.96, -10.43 9.8, -12.52 11.76" stroke="#ffffff" stroke-width="4" fill="none"></path></g></g><mask></mask><g stroke-linecap="round"><g transform="translate(46.10674800817469 47.525720051763074) rotate(718.2226840155579 -0.3856023494854526 12.426771910056459)"><path d="M0 0 C-0.13 4.14, -0.64 20.71, -0.77 24.85 M0 0 C-0.13 4.14, -0.64 20.71, -0.77 24.85" stroke="#ffffff" stroke-width="4" fill="none"></path></g></g><mask></mask><g stroke-linecap="round" transform="translate(10 10) rotate(0 52.407600545099285 42.84112930857896)"><path d="M21.42 0 C41.37 2.41, 61.48 0.3, 83.39 0 M21.42 0 C33.82 0.41, 46.69 -0.27, 83.39 0 M83.39 0 C97.26 0.36, 106.47 5.64, 104.82 21.42 M83.39 0 C98.04 1.79, 102.84 6.35, 104.82 21.42 M104.82 21.42 C102.56 31.48, 102.78 43.45, 104.82 64.26 M104.82 21.42 C103.73 38.3, 104.2 54.1, 104.82 64.26 M104.82 64.26 C103.9 80.32, 98.29 85.97, 83.39 85.68 M104.82 64.26 C102.92 79.18, 98.54 83.41, 83.39 85.68 M83.39 85.68 C62.52 84.71, 41.29 84.61, 21.42 85.68 M83.39 85.68 C67.36 85.61, 52.84 85.87, 21.42 85.68 M21.42 85.68 C5.35 84.47, 0.09 78.67, 0 64.26 M21.42 85.68 C9.38 83.83, 0.65 79.79, 0 64.26 M0 64.26 C0.56 54.5, -0.45 43.01, 0 21.42 M0 64.26 C0.34 49.72, -0.84 35.39, 0 21.42 M0 21.42 C-1.18 6.41, 5.87 -0.71, 21.42 0 M0 21.42 C0.87 5.39, 5.48 1.02, 21.42 0" stroke="transparent" stroke-width="4" fill="none"></path></g></svg>
