<?xml version="1.0" standalone="no"?>
<!DOCTYPE svg PUBLIC "-//W3C//DTD SVG 1.1//EN" "http://www.w3.org/Graphics/SVG/1.1/DTD/svg11.dtd">
<svg version="1.1" xmlns="http://www.w3.org/2000/svg" viewBox="0 0 124.81520109019857 105.68225861715791" width="124.81520109019857" height="105.68225861715791"><!-- svg-source:excalidraw --><metadata></metadata><defs><style class="style-fonts">
      </style></defs><g stroke-linecap="round"><g transform="translate(60.97863589651024 24.558575663407282) rotate(358.055788004559 -6.06667567777049 5.806399401433964)"><path d="M0 0 C-2.02 1.94, -10.11 9.68, -12.13 11.61 M0 0 C-2.02 1.94, -10.11 9.68, -12.13 11.61" stroke="#ffffff" stroke-width="4" fill="none"></path></g></g><mask></mask><g stroke-linecap="round"><g transform="translate(49.330524083430646 36.49957078092848) rotate(358.055788004559 -0.1756392415022674 12.234656751297507)"><path d="M0 0 C-0.06 4.08, -0.29 20.39, -0.35 24.47 M0 0 C-0.06 4.08, -0.29 20.39, -0.35 24.47" stroke="#ffffff" stroke-width="4" fill="none"></path></g></g><mask></mask><g stroke-linecap="round"><g transform="translate(61.88042283799314 60.538653804389014) rotate(178.87826273512763 0 -6.049970873111533)" fill-rule="evenodd"><path d="M0 0 C0 -2.02, 0 -11.13, 0 -12.1 C0 -13.07, 0 -6.85, 0 -5.8" stroke="none" stroke-width="0" fill="#b2f2bb" fill-rule="evenodd"></path><path d="M0 0 C0 -2.02, 0 -11.13, 0 -12.1 C0 -13.07, 0 -6.85, 0 -5.8 M0 0 C0 -2.02, 0 -11.13, 0 -12.1 C0 -13.07, 0 -6.85, 0 -5.8" stroke="#ffffff" stroke-width="4" fill="none"></path></g></g><mask></mask><g stroke-linecap="round"><g transform="translate(85.39782139369163 84.31768403939805) rotate(178.87826273512763 -11.534399122500417 -12.128798852295176)"><path d="M0 0 C-3.84 -4.04, -19.22 -20.21, -23.07 -24.26 M0 0 C-3.84 -4.04, -19.22 -20.21, -23.07 -24.26" stroke="#ffffff" stroke-width="4" fill="none"></path></g></g><mask></mask><g stroke-linecap="round"><g transform="translate(74.35614562903174 35.11136622622507) rotate(178.87826273512763 0 12.807115116903105)"><path d="M0 0 C0 4.27, 0 21.35, 0 25.61 M0 0 C0 4.27, 0 21.35, 0 25.61" class="trichord_electron" stroke="#9c36b5" stroke-width="4" fill="none"></path></g></g><mask></mask><g stroke-linecap="round"><g transform="translate(62.155729052214156 35.78932673098916) rotate(178.87826273512763 6.053359951057246 6.9353064339929915)"><path d="M0 0 C2.02 2.31, 10.09 11.56, 12.11 13.87 M0 0 C2.02 2.31, 10.09 11.56, 12.11 13.87" class="trichord_electron" stroke="#9c36b5" stroke-width="4" fill="none"></path></g></g><mask></mask><g stroke-linecap="round" transform="translate(10 10) rotate(0 52.407600545099285 42.84112930857896)"><path d="M21.42 0 C41.37 2.41, 61.48 0.3, 83.39 0 M21.42 0 C33.82 0.41, 46.69 -0.27, 83.39 0 M83.39 0 C97.26 0.36, 106.47 5.64, 104.82 21.42 M83.39 0 C98.04 1.79, 102.84 6.35, 104.82 21.42 M104.82 21.42 C102.56 31.48, 102.78 43.45, 104.82 64.26 M104.82 21.42 C103.73 38.3, 104.2 54.1, 104.82 64.26 M104.82 64.26 C103.9 80.32, 98.29 85.97, 83.39 85.68 M104.82 64.26 C102.92 79.18, 98.54 83.41, 83.39 85.68 M83.39 85.68 C62.52 84.71, 41.29 84.61, 21.42 85.68 M83.39 85.68 C67.36 85.61, 52.84 85.87, 21.42 85.68 M21.42 85.68 C5.35 84.47, 0.09 78.67, 0 64.26 M21.42 85.68 C9.38 83.83, 0.65 79.79, 0 64.26 M0 64.26 C0.56 54.5, -0.45 43.01, 0 21.42 M0 64.26 C0.34 49.72, -0.84 35.39, 0 21.42 M0 21.42 C-1.18 6.41, 5.87 -0.71, 21.42 0 M0 21.42 C0.87 5.39, 5.48 1.02, 21.42 0" stroke="transparent" stroke-width="4" fill="none"></path></g></svg>
