<?xml version="1.0" standalone="no"?>
<!DOCTYPE svg PUBLIC "-//W3C//DTD SVG 1.1//EN" "http://www.w3.org/Graphics/SVG/1.1/DTD/svg11.dtd">
<svg version="1.1" xmlns="http://www.w3.org/2000/svg" viewBox="0 0 124.81520109019857 105.68225861715814" width="124.81520109019857" height="105.68225861715814"><!-- svg-source:excalidraw --><metadata></metadata><defs><style class="style-fonts">
      </style></defs><g stroke-linecap="round" transform="translate(10 10) rotate(0 52.407600545099285 42.84112930857907)"><path d="M21.42 0 C41.47 1.2, 55.76 0.13, 83.39 0 M21.42 0 C40.27 -0.12, 60.3 0.75, 83.39 0 M83.39 0 C96.3 0.34, 103.25 6.24, 104.82 21.42 M83.39 0 C98.05 0.48, 102.73 6, 104.82 21.42 M104.82 21.42 C103.1 36.37, 103.95 48.93, 104.82 64.26 M104.82 21.42 C104.13 33.38, 105.14 46.04, 104.82 64.26 M104.82 64.26 C104.16 77.36, 97.05 84.08, 83.39 85.68 M104.82 64.26 C105.37 77.81, 99.49 84.33, 83.39 85.68 M83.39 85.68 C64.12 85.1, 44.32 84.45, 21.42 85.68 M83.39 85.68 C60.95 85.95, 38.63 85.77, 21.42 85.68 M21.42 85.68 C6.28 84.03, 0.4 78.75, 0 64.26 M21.42 85.68 C9.06 86.64, 1.63 76.44, 0 64.26 M0 64.26 C1.43 54.09, 0.96 44.39, 0 21.42 M0 64.26 C0.34 53.68, 0.97 44.98, 0 21.42 M0 21.42 C-0.42 8.61, 8.28 -0.81, 21.42 0 M0 21.42 C-0.3 7.61, 9.43 0.4, 21.42 0" stroke="transparent" stroke-width="4" fill="none"></path></g><g stroke-linecap="round"><g transform="translate(51.43758431191145 33.61097355444872) rotate(0 -6.458666780299609 6.235954132703)"><path d="M0 0 C-2.15 2.08, -10.76 10.39, -12.92 12.47 M0 0 C-2.15 2.08, -10.76 10.39, -12.92 12.47" class="trichord_electron" stroke="#9c36b5" stroke-width="4" fill="none"></path></g></g><mask></mask><g stroke-linecap="round"><g transform="translate(38.29753810371312 46.305594467451556) rotate(0 6.013241485106391 6.124597808904696)"><path d="M0 0 C2 2.04, 10.02 10.21, 12.03 12.25 M0 0 C2 2.04, 10.02 10.21, 12.03 12.25" class="trichord_electron" stroke="#9c36b5" stroke-width="4" fill="none"></path></g></g><mask></mask><g stroke-linecap="round"><g transform="translate(50.76944636911958 58.77750273285619) rotate(0 -6.2359541327032275 6.124597808904696)"><path d="M0 0 C-2.08 2.04, -10.39 10.21, -12.47 12.25 M0 0 C-2.08 2.04, -10.39 10.21, -12.47 12.25" class="trichord_electron" stroke="#9c36b5" stroke-width="4" fill="none"></path></g></g><mask></mask><g stroke-linecap="round"><g transform="translate(62.97168112374038 33.573610219640614) rotate(0 0 18.72654383077679)"><path d="M0 0 C0 6.24, 0 31.21, 0 37.45 M0 0 C0 6.24, 0 31.21, 0 37.45" stroke="#ffffff" stroke-width="4" fill="none"></path></g></g><mask></mask><g stroke-linecap="round"><g transform="translate(87.64535555293605 33.57361035066515) rotate(0 -6.465116380952622 6.242181333333519)"><path d="M0 0 C-2.16 2.08, -10.78 10.4, -12.93 12.48 M0 0 C-2.16 2.08, -10.78 10.4, -12.93 12.48" stroke="#ffffff" stroke-width="4" fill="none"></path></g></g><mask></mask><g stroke-linecap="round"><g transform="translate(74.4921877434108 46.2809080649522) rotate(0 6.0192462857144164 6.130713809523968)"><path d="M0 0 C2.01 2.04, 10.03 10.22, 12.04 12.26 M0 0 C2.01 2.04, 10.03 10.22, 12.04 12.26" stroke="#ffffff" stroke-width="4" fill="none"></path></g></g><mask></mask><g stroke-linecap="round"><g transform="translate(86.97655041007692 58.76527073161742) rotate(0 -6.242181333333974 6.130713809523968)"><path d="M0 0 C-2.08 2.04, -10.4 10.22, -12.48 12.26 M0 0 C-2.08 2.04, -10.4 10.22, -12.48 12.26" stroke="#ffffff" stroke-width="4" fill="none"></path></g></g><mask></mask></svg>
