<?xml version="1.0" standalone="no"?>
<!DOCTYPE svg PUBLIC "-//W3C//DTD SVG 1.1//EN" "http://www.w3.org/Graphics/SVG/1.1/DTD/svg11.dtd">
<svg version="1.1" xmlns="http://www.w3.org/2000/svg" viewBox="0 0 124.81520109019857 105.68225861715837" width="124.81520109019857" height="105.68225861715837"><!-- svg-source:excalidraw --><metadata></metadata><defs><style class="style-fonts">
      </style></defs><g stroke-linecap="round"><g transform="translate(37.17021632062006 71.96702344060668) rotate(0 11.2778486111456 0)"><path d="M0 0 C3.76 0, 18.8 0, 22.56 0 M0 0 C3.76 0, 18.8 0, 22.56 0" class="trichord_electron" stroke="#9c36b5" stroke-width="4" fill="none"></path></g></g><mask></mask><g stroke-linecap="round"><g transform="translate(48.38901860395981 49.52941887392899) rotate(0 0.11809265561396387 0.05904632780720931)"><path d="M0 0 C0.04 0.02, 0.2 0.1, 0.24 0.12 M0 0 C0.04 0.02, 0.2 0.1, 0.24 0.12" class="trichord_electron" stroke="#9c36b5" stroke-width="4" fill="none"></path></g></g><mask></mask><g stroke-linecap="round"><g transform="translate(61.23407356129883 47.77645460849362) rotate(178.81881108667483 0 5.872917458889788)"><path d="M0 0 C0 1.96, 0 9.79, 0 11.75 M0 0 C0 1.96, 0 9.79, 0 11.75" stroke="#ffffff" stroke-width="4" fill="none"></path></g></g><mask></mask><g stroke-linecap="round"><g transform="translate(48.57295399398481 35.30501915975674) rotate(178.81881108667483 6.161027661623848 6.121940159999667)"><path d="M0 0 C2.05 2.04, 10.27 10.2, 12.32 12.24 M0 0 C2.05 2.04, 10.27 10.2, 12.32 12.24" stroke="#ffffff" stroke-width="4" fill="none"></path></g></g><mask></mask><g stroke-linecap="round"><g transform="translate(61.50701964298696 59.52887153334359) rotate(178.81881108667483 6.013692303471089 5.975539543803734)"><path d="M0 0 C2 1.99, 10.02 9.96, 12.03 11.95 M0 0 C2 1.99, 10.02 9.96, 12.03 11.95" stroke="#ffffff" stroke-width="4" fill="none"></path></g></g><mask></mask><g stroke-linecap="round"><g transform="translate(73.83819472137748 48.10591883587222) rotate(178.81881108667483 0 5.872917458889788)"><path d="M0 0 C0 1.96, 0 9.79, 0 11.75 M0 0 C0 1.96, 0 9.79, 0 11.75" stroke="#ffffff" stroke-width="4" fill="none"></path></g></g><mask></mask><g stroke-linecap="round"><g transform="translate(61.17707515406346 35.63448338713533) rotate(178.81881108667483 6.161027661623848 6.121940159999667)"><path d="M0 0 C2.05 2.04, 10.27 10.2, 12.32 12.24 M0 0 C2.05 2.04, 10.27 10.2, 12.32 12.24" stroke="#ffffff" stroke-width="4" fill="none"></path></g></g><mask></mask><g stroke-linecap="round"><g transform="translate(74.11114080306197 59.858335760722184) rotate(178.81881108667483 6.013692303471089 5.975539543803734)"><path d="M0 0 C2 1.99, 10.02 9.96, 12.03 11.95 M0 0 C2 1.99, 10.02 9.96, 12.03 11.95" stroke="#ffffff" stroke-width="4" fill="none"></path></g></g><mask></mask><g stroke-linecap="round" transform="translate(10 10) rotate(0 52.407600545099285 42.841129308579184)"><path d="M21.42 0 C41.37 2.41, 61.48 0.3, 83.39 0 M21.42 0 C33.82 0.41, 46.69 -0.27, 83.39 0 M83.39 0 C97.26 0.36, 106.47 5.64, 104.82 21.42 M83.39 0 C98.04 1.79, 102.84 6.35, 104.82 21.42 M104.82 21.42 C102.56 31.48, 102.78 43.45, 104.82 64.26 M104.82 21.42 C103.73 38.3, 104.2 54.1, 104.82 64.26 M104.82 64.26 C103.9 80.32, 98.29 85.97, 83.39 85.68 M104.82 64.26 C102.92 79.18, 98.54 83.41, 83.39 85.68 M83.39 85.68 C62.52 84.71, 41.29 84.61, 21.42 85.68 M83.39 85.68 C67.36 85.61, 52.84 85.87, 21.42 85.68 M21.42 85.68 C5.35 84.47, 0.09 78.67, 0 64.26 M21.42 85.68 C9.38 83.83, 0.65 79.79, 0 64.26 M0 64.26 C0.56 54.5, -0.45 43.01, 0 21.42 M0 64.26 C0.34 49.72, -0.84 35.39, 0 21.42 M0 21.42 C-1.18 6.41, 5.87 -0.71, 21.42 0 M0 21.42 C0.87 5.39, 5.48 1.02, 21.42 0" stroke="transparent" stroke-width="4" fill="none"></path></g></svg>
