<?xml version="1.0" standalone="no"?>
<!DOCTYPE svg PUBLIC "-//W3C//DTD SVG 1.1//EN" "http://www.w3.org/Graphics/SVG/1.1/DTD/svg11.dtd">
<svg version="1.1" xmlns="http://www.w3.org/2000/svg" viewBox="0 0 124.81520109019857 105.68225861715837" width="124.81520109019857" height="105.68225861715837"><!-- svg-source:excalidraw --><metadata></metadata><defs><style class="style-fonts">
      </style></defs><g stroke-linecap="round"><g transform="translate(76.06324087896246 76.92269883637982) rotate(0 -18.519624216492502 -18.519624216492502)"><path d="M0 0 C-6.17 -6.17, -30.87 -30.87, -37.04 -37.04 M0 0 C-6.17 -6.17, -30.87 -30.87, -37.04 -37.04" stroke="#ffffff" stroke-width="4" fill="none"></path></g></g><mask></mask><g stroke-linecap="round"><g transform="translate(62.05758249779683 27.49286928453057) rotate(0 -12.10002711854986 -0.14235326021798755)"><path d="M0 0 C-4.03 -0.05, -20.17 -0.24, -24.2 -0.28 M0 0 C-4.03 -0.05, -20.17 -0.24, -24.2 -0.28" class="trichord_electron" stroke="#9c36b5" stroke-width="4" fill="none"></path></g></g><mask></mask><g stroke-linecap="round"><g transform="translate(50.10514201074511 39.240662737719504) rotate(0 -6.150012355993567 -6.021454848363192)"><path d="M0 0 C-2.05 -2.01, -10.25 -10.04, -12.3 -12.04 M0 0 C-2.05 -2.01, -10.25 -10.04, -12.3 -12.04" class="trichord_electron" stroke="#9c36b5" stroke-width="4" fill="none"></path></g></g><mask></mask><g stroke-linecap="round"><g transform="translate(62.220404270645304 28.028677423505542) rotate(0 -5.9197883646106675 5.791230856980292)"><path d="M0 0 C-1.97 1.93, -9.87 9.65, -11.84 11.58 M0 0 C-1.97 1.93, -9.87 9.65, -11.84 11.58" class="trichord_electron" stroke="#9c36b5" stroke-width="4" fill="none"></path></g></g><mask></mask><g stroke-linecap="round"><g transform="translate(88.56956485524825 76.28082703177915) rotate(0 -12.483710971562687 -12.100523725290714)"><path d="M0 0 C-4.16 -4.03, -20.81 -20.17, -24.97 -24.2 M0 0 C-4.16 -4.03, -20.81 -20.17, -24.97 -24.2" stroke="#ffffff" stroke-width="4" fill="none"></path></g></g><mask></mask><g stroke-linecap="round"><g transform="translate(63.55691679294796 51.50281560692656) rotate(0 0 -5.809682599609914)"><path d="M0 0 C0 -1.94, 0 -9.68, 0 -11.62 M0 0 C0 -1.94, 0 -9.68, 0 -11.62" stroke="#ffffff" stroke-width="4" fill="none"></path></g></g><mask></mask><g stroke-linecap="round" transform="translate(10 10) rotate(0 52.407600545099285 42.841129308579184)"><path d="M21.42 0 C41.37 2.41, 61.48 0.3, 83.39 0 M21.42 0 C33.82 0.41, 46.69 -0.27, 83.39 0 M83.39 0 C97.26 0.36, 106.47 5.64, 104.82 21.42 M83.39 0 C98.04 1.79, 102.84 6.35, 104.82 21.42 M104.82 21.42 C102.56 31.48, 102.78 43.45, 104.82 64.26 M104.82 21.42 C103.73 38.3, 104.2 54.1, 104.82 64.26 M104.82 64.26 C103.9 80.32, 98.29 85.97, 83.39 85.68 M104.82 64.26 C102.92 79.18, 98.54 83.41, 83.39 85.68 M83.39 85.68 C62.52 84.71, 41.29 84.61, 21.42 85.68 M83.39 85.68 C67.36 85.61, 52.84 85.87, 21.42 85.68 M21.42 85.68 C5.35 84.47, 0.09 78.67, 0 64.26 M21.42 85.68 C9.38 83.83, 0.65 79.79, 0 64.26 M0 64.26 C0.56 54.5, -0.45 43.01, 0 21.42 M0 64.26 C0.34 49.72, -0.84 35.39, 0 21.42 M0 21.42 C-1.18 6.41, 5.87 -0.71, 21.42 0 M0 21.42 C0.87 5.39, 5.48 1.02, 21.42 0" stroke="transparent" stroke-width="4" fill="none"></path></g></svg>
