<?xml version="1.0" standalone="no"?>
<!DOCTYPE svg PUBLIC "-//W3C//DTD SVG 1.1//EN" "http://www.w3.org/Graphics/SVG/1.1/DTD/svg11.dtd">
<svg version="1.1" xmlns="http://www.w3.org/2000/svg" viewBox="0 0 124.81520109019857 105.68225861715837" width="124.81520109019857" height="105.68225861715837"><!-- svg-source:excalidraw --><metadata></metadata><defs><style class="style-fonts">
      </style></defs><g stroke-linecap="round"><g transform="translate(59.947034584987705 32.83702200757216) rotate(0 6.153736138375734 6.227877537633503)"><path d="M0 0 C2.05 2.08, 10.26 10.38, 12.31 12.46 M0 0 C2.05 2.08, 10.26 10.38, 12.31 12.46" stroke="#ffffff" stroke-width="4" fill="none"></path></g></g><mask></mask><g stroke-linecap="round"><g transform="translate(72.5510724587657 45.88590827689768) rotate(0 -12.30112244329166 12.330193892639727)"><path d="M0 0 C-4.1 4.11, -20.5 20.55, -24.6 24.66 M0 0 C-4.1 4.11, -20.5 20.55, -24.6 24.66" stroke="#ffffff" stroke-width="4" fill="none"></path></g></g><mask></mask><g stroke-linecap="round"><g transform="translate(72.24815757387842 32.83702213372089) rotate(0 6.153736138375734 6.227877537633503)"><path d="M0 0 C2.05 2.08, 10.26 10.38, 12.31 12.46 M0 0 C2.05 2.08, 10.26 10.38, 12.31 12.46" stroke="#ffffff" stroke-width="4" fill="none"></path></g></g><mask></mask><g stroke-linecap="round"><g transform="translate(84.85219544766005 45.885908403046415) rotate(0 -12.30112244329166 12.330193892639727)"><path d="M0 0 C-4.1 4.11, -20.5 20.55, -24.6 24.66 M0 0 C-4.1 4.11, -20.5 20.55, -24.6 24.66" stroke="#ffffff" stroke-width="4" fill="none"></path></g></g><mask></mask><g stroke-linecap="round"><g transform="translate(34.59985130542918 57.892975033113544) rotate(0 6.422068830610897 0.0075025732417088875)"><path d="M0 0 C2.14 0, 10.7 0.01, 12.84 0.02 M0 0 C2.14 0, 10.7 0.01, 12.84 0.02" class="trichord_electron" stroke="#9c36b5" stroke-width="4" fill="none"></path></g></g><mask></mask><g stroke-linecap="round"><g transform="translate(34.53965026374863 57.50862458277879) rotate(0 6.2549760269021135 -6.258055905077981)"><path d="M0 0 C2.08 -2.09, 10.42 -10.43, 12.51 -12.52 M0 0 C2.08 -2.09, 10.42 -10.43, 12.51 -12.52" class="trichord_electron" stroke="#9c36b5" stroke-width="4" fill="none"></path></g></g><mask></mask><g stroke-linecap="round"><g transform="translate(47.302725996974914 44.96223124842254) rotate(0 6.285076547742392 -0.04669072034812416)"><path d="M0 0 C2.1 -0.02, 10.48 -0.08, 12.57 -0.09 M0 0 C2.1 -0.02, 10.48 -0.08, 12.57 -0.09" class="trichord_electron" stroke="#9c36b5" stroke-width="4" fill="none"></path></g></g><mask></mask><g stroke-linecap="round"><g transform="translate(60.18004405721149 45.60446108486758) rotate(0 -6.201530145888228 6.168349746872082)"><path d="M0 0 C-2.07 2.06, -10.34 10.28, -12.4 12.34 M0 0 C-2.07 2.06, -10.34 10.28, -12.4 12.34" class="trichord_electron" stroke="#9c36b5" stroke-width="4" fill="none"></path></g></g><mask></mask><g stroke-linecap="round" transform="translate(10 10) rotate(0 52.407600545099285 42.841129308579184)"><path d="M21.42 0 C41.37 2.41, 61.48 0.3, 83.39 0 M21.42 0 C33.82 0.41, 46.69 -0.27, 83.39 0 M83.39 0 C97.26 0.36, 106.47 5.64, 104.82 21.42 M83.39 0 C98.04 1.79, 102.84 6.35, 104.82 21.42 M104.82 21.42 C102.56 31.48, 102.78 43.45, 104.82 64.26 M104.82 21.42 C103.73 38.3, 104.2 54.1, 104.82 64.26 M104.82 64.26 C103.9 80.32, 98.29 85.97, 83.39 85.68 M104.82 64.26 C102.92 79.18, 98.54 83.41, 83.39 85.68 M83.39 85.68 C62.52 84.71, 41.29 84.61, 21.42 85.68 M83.39 85.68 C67.36 85.61, 52.84 85.87, 21.42 85.68 M21.42 85.68 C5.35 84.47, 0.09 78.67, 0 64.26 M21.42 85.68 C9.38 83.83, 0.65 79.79, 0 64.26 M0 64.26 C0.56 54.5, -0.45 43.01, 0 21.42 M0 64.26 C0.34 49.72, -0.84 35.39, 0 21.42 M0 21.42 C-1.18 6.41, 5.87 -0.71, 21.42 0 M0 21.42 C0.87 5.39, 5.48 1.02, 21.42 0" stroke="transparent" stroke-width="4" fill="none"></path></g></svg>
