<?xml version="1.0" standalone="no"?>
<!DOCTYPE svg PUBLIC "-//W3C//DTD SVG 1.1//EN" "http://www.w3.org/Graphics/SVG/1.1/DTD/svg11.dtd">
<svg version="1.1" xmlns="http://www.w3.org/2000/svg" viewBox="0 0 124.81520109019857 105.68225861715837" width="124.81520109019857" height="105.68225861715837"><!-- svg-source:excalidraw --><metadata></metadata><defs><style class="style-fonts">
      </style></defs><g stroke-linecap="round"><g transform="translate(49.01452477601288 70.29663261533824) rotate(0 0 -5.581430270367491)"><path d="M0 0 C0 -1.86, 0 -9.3, 0 -11.16 M0 0 C0 -1.86, 0 -9.3, 0 -11.16" stroke="#ffffff" stroke-width="4" fill="none"></path></g></g><mask></mask><g stroke-linecap="round"><g transform="translate(49.192144269517485 58.75918026213367) rotate(0 6.081679286698545 -6.025286959028108)"><path d="M0 0 C2.03 -2.01, 10.14 -10.04, 12.16 -12.05 M0 0 C2.03 -2.01, 10.14 -10.04, 12.16 -12.05" stroke="#ffffff" stroke-width="4" fill="none"></path></g></g><mask></mask><g stroke-linecap="round"><g transform="translate(61.729439953099245 46.2961899387501) rotate(0 0 -5.8585536030468575)"><path d="M0 0 C0 -1.95, 0 -9.76, 0 -11.72 M0 0 C0 -1.95, 0 -9.76, 0 -11.72" stroke="#ffffff" stroke-width="4" fill="none"></path></g></g><mask></mask><g stroke-linecap="round"><g transform="translate(73.29345385407396 58.897346572694005) rotate(898.2226840155578 -6.257868583196796 5.881193849916144)"><path d="M0 0 C-2.09 1.96, -10.43 9.8, -12.52 11.76 M0 0 C-2.09 1.96, -10.43 9.8, -12.52 11.76" stroke="#ffffff" stroke-width="4" fill="none"></path></g></g><mask></mask><g stroke-linecap="round"><g transform="translate(73.75446172975626 34.03054522647926) rotate(898.2226840155578 -0.375370391335764 12.09702752367184)"><path d="M0 0 C-0.13 4.03, -0.63 20.16, -0.75 24.19 M0 0 C-0.13 4.03, -0.63 20.16, -0.75 24.19" stroke="#ffffff" stroke-width="4" fill="none"></path></g></g><mask></mask><g stroke-linecap="round"><g transform="translate(49.06408050893879 46.005025456775) rotate(180 -0.024777911859473534 -5.926081313814848)" fill-rule="evenodd"><path d="M0 0 C-0.01 -1.98, -0.05 -10.89, -0.05 -11.85 C-0.05 -12.82, -0.01 -6.81, 0 -5.8" stroke="none" stroke-width="0" fill="#b2f2bb" fill-rule="evenodd"></path><path d="M0 0 C-0.01 -1.98, -0.05 -10.89, -0.05 -11.85 C-0.05 -12.82, -0.01 -6.81, 0 -5.8 M0 0 C-0.01 -1.98, -0.05 -10.89, -0.05 -11.85 C-0.05 -12.82, -0.01 -6.81, 0 -5.8" class="trichord_electron" stroke="#9c36b5" stroke-width="4" fill="none"></path></g></g><mask></mask><g stroke-linecap="round"><g transform="translate(73.10791013446669 70.52439030315327) rotate(180 -11.997294885979045 -12.261054784717999)"><path d="M0 0 C-4 -4.09, -20 -20.44, -23.99 -24.52 M0 0 C-4 -4.09, -20 -20.44, -23.99 -24.52" class="trichord_electron" stroke="#9c36b5" stroke-width="4" fill="none"></path></g></g><mask></mask><g stroke-linecap="round" transform="translate(10 10) rotate(0 52.407600545099285 42.841129308579184)"><path d="M21.42 0 C41.37 2.41, 61.48 0.3, 83.39 0 M21.42 0 C33.82 0.41, 46.69 -0.27, 83.39 0 M83.39 0 C97.26 0.36, 106.47 5.64, 104.82 21.42 M83.39 0 C98.04 1.79, 102.84 6.35, 104.82 21.42 M104.82 21.42 C102.56 31.48, 102.78 43.45, 104.82 64.26 M104.82 21.42 C103.73 38.3, 104.2 54.1, 104.82 64.26 M104.82 64.26 C103.9 80.32, 98.29 85.97, 83.39 85.68 M104.82 64.26 C102.92 79.18, 98.54 83.41, 83.39 85.68 M83.39 85.68 C62.52 84.71, 41.29 84.61, 21.42 85.68 M83.39 85.68 C67.36 85.61, 52.84 85.87, 21.42 85.68 M21.42 85.68 C5.35 84.47, 0.09 78.67, 0 64.26 M21.42 85.68 C9.38 83.83, 0.65 79.79, 0 64.26 M0 64.26 C0.56 54.5, -0.45 43.01, 0 21.42 M0 64.26 C0.34 49.72, -0.84 35.39, 0 21.42 M0 21.42 C-1.18 6.41, 5.87 -0.71, 21.42 0 M0 21.42 C0.87 5.39, 5.48 1.02, 21.42 0" stroke="transparent" stroke-width="4" fill="none"></path></g></svg>
