<?xml version="1.0" standalone="no"?>
<!DOCTYPE svg PUBLIC "-//W3C//DTD SVG 1.1//EN" "http://www.w3.org/Graphics/SVG/1.1/DTD/svg11.dtd">
<svg version="1.1" xmlns="http://www.w3.org/2000/svg" viewBox="0 0 124.81520109019857 105.68225861715791" width="124.81520109019857" height="105.68225861715791"><!-- svg-source:excalidraw --><metadata></metadata><defs><style class="style-fonts">
      </style></defs><g stroke-linecap="round"><g transform="translate(72.03357138533647 59.80639767691582) rotate(179.04515874612662 -6.082973236104408 5.873215538307477)"><path d="M0 0 C-2.03 1.96, -10.14 9.79, -12.17 11.75 M0 0 C-2.03 1.96, -10.14 9.79, -12.17 11.75" stroke="#ffffff" stroke-width="4" fill="none"></path></g></g><mask></mask><g stroke-linecap="round"><g transform="translate(59.92022967736102 47.70413127866232) rotate(179.04515874612662 6.061313100060033 5.945161249208695)"><path d="M0 0 C2.02 1.98, 10.1 9.91, 12.12 11.89 M0 0 C2.02 1.98, 10.1 9.91, 12.12 11.89" stroke="#ffffff" stroke-width="4" fill="none"></path></g></g><mask></mask><g stroke-linecap="round"><g transform="translate(71.84786272806195 36.314996434931345) rotate(179.04515874612662 -6.182658517957407 5.635718269559447)"><path d="M0 0 C-2.06 1.88, -10.3 9.39, -12.37 11.27 M0 0 C-2.06 1.88, -10.3 9.39, -12.37 11.27" stroke="#ffffff" stroke-width="4" fill="none"></path></g></g><mask></mask><g stroke-linecap="round"><g transform="translate(59.556461437310645 36.34766969289467) rotate(358.222684015558 -5.9191982181891944 5.770221457324624)"><path d="M0 0 C-1.97 1.92, -9.87 9.62, -11.84 11.54 M0 0 C-1.97 1.92, -9.87 9.62, -11.84 11.54" stroke="#ffffff" stroke-width="4" fill="none"></path></g></g><mask></mask><g stroke-linecap="round"><g transform="translate(48.133925151326366 48.1874579886362) rotate(358.222684015558 -0.1652574744693993 11.511484896130924)"><path d="M0 0 C-0.06 3.84, -0.28 19.19, -0.33 23.02 M0 0 C-0.06 3.84, -0.28 19.19, -0.33 23.02" stroke="#ffffff" stroke-width="4" fill="none"></path></g></g><mask></mask><g stroke-linecap="round"><g transform="translate(59.99165918052313 59.60337660012965) rotate(179.04515874612662 6.177746142798242 6.183362868964423)"><path d="M0 0 C2.06 2.06, 10.3 10.31, 12.36 12.37 M0 0 C2.06 2.06, 10.3 10.31, 12.36 12.37" class="trichord_electron" stroke="#9c36b5" stroke-width="4" fill="none"></path></g></g><mask></mask><g stroke-linecap="round"><g transform="translate(72.2548716975407 47.96555209636654) rotate(179.04515874612662 -6.246596057822444 5.754865245012752)"><path d="M0 0 C-2.08 1.92, -10.41 9.59, -12.49 11.51 M0 0 C-2.08 1.92, -10.41 9.59, -12.49 11.51" class="trichord_electron" stroke="#9c36b5" stroke-width="4" fill="none"></path></g></g><mask></mask><g stroke-linecap="round"><g transform="translate(84.40537516578388 47.833293962136395) rotate(179.04515874612662 -6.018768115068724 -0.08841227990001244)"><path d="M0 0 C-2.01 -0.03, -10.03 -0.15, -12.04 -0.18 M0 0 C-2.01 -0.03, -10.03 -0.15, -12.04 -0.18" class="trichord_electron" stroke="#9c36b5" stroke-width="4" fill="none"></path></g></g><mask></mask><g stroke-linecap="round" transform="translate(10 10) rotate(0 52.407600545099285 42.84112930857896)"><path d="M21.42 0 C41.37 2.41, 61.48 0.3, 83.39 0 M21.42 0 C33.82 0.41, 46.69 -0.27, 83.39 0 M83.39 0 C97.26 0.36, 106.47 5.64, 104.82 21.42 M83.39 0 C98.04 1.79, 102.84 6.35, 104.82 21.42 M104.82 21.42 C102.56 31.48, 102.78 43.45, 104.82 64.26 M104.82 21.42 C103.73 38.3, 104.2 54.1, 104.82 64.26 M104.82 64.26 C103.9 80.32, 98.29 85.97, 83.39 85.68 M104.82 64.26 C102.92 79.18, 98.54 83.41, 83.39 85.68 M83.39 85.68 C62.52 84.71, 41.29 84.61, 21.42 85.68 M83.39 85.68 C67.36 85.61, 52.84 85.87, 21.42 85.68 M21.42 85.68 C5.35 84.47, 0.09 78.67, 0 64.26 M21.42 85.68 C9.38 83.83, 0.65 79.79, 0 64.26 M0 64.26 C0.56 54.5, -0.45 43.01, 0 21.42 M0 64.26 C0.34 49.72, -0.84 35.39, 0 21.42 M0 21.42 C-1.18 6.41, 5.87 -0.71, 21.42 0 M0 21.42 C0.87 5.39, 5.48 1.02, 21.42 0" stroke="transparent" stroke-width="4" fill="none"></path></g></svg>
