<?xml version="1.0" standalone="no"?>
<!DOCTYPE svg PUBLIC "-//W3C//DTD SVG 1.1//EN" "http://www.w3.org/Graphics/SVG/1.1/DTD/svg11.dtd">
<svg version="1.1" xmlns="http://www.w3.org/2000/svg" viewBox="0 0 124.81520109019857 105.68225861715837" width="124.81520109019857" height="105.68225861715837"><!-- svg-source:excalidraw --><metadata></metadata><defs><style class="style-fonts">
      </style></defs><g stroke-linecap="round"><g transform="translate(55.12907270019605 25.58353558640465) rotate(0 6.197765351471844 6.07863294219942)"><path d="M0 0 C2.07 2.03, 10.33 10.13, 12.4 12.16 M0 0 C2.07 2.03, 10.33 10.13, 12.4 12.16" stroke="#ffffff" stroke-width="4" fill="none"></path></g></g><mask></mask><g stroke-linecap="round"><g transform="translate(80.12870030270096 63.11797445497632) rotate(0 -6.204890100671491 -5.9655617195494415)"><path d="M0 0 C-2.07 -1.99, -10.34 -9.94, -12.41 -11.93 M0 0 C-2.07 -1.99, -10.34 -9.94, -12.41 -11.93" stroke="#ffffff" stroke-width="4" fill="none"></path></g></g><mask></mask><g stroke-linecap="round"><g transform="translate(67.55577406113298 38.57938200821536) rotate(0 -0.08557663860665343 6.1198355414489924)"><path d="M0 0 C-0.03 2.04, -0.14 10.2, -0.17 12.24 M0 0 C-0.03 2.04, -0.14 10.2, -0.17 12.24" stroke="#ffffff" stroke-width="4" fill="none"></path></g></g><mask></mask><g stroke-linecap="round"><g transform="translate(43.018557623407105 75.26714644963886) rotate(0 6.055257466600779 -6.32006397988107)"><path d="M0 0 C2.02 -2.11, 10.09 -10.53, 12.11 -12.64 M0 0 C2.02 -2.11, 10.09 -10.53, 12.11 -12.64" stroke="#ffffff" stroke-width="4" fill="none"></path></g></g><mask></mask><g stroke-linecap="round"><g transform="translate(55.54588229803994 61.97875471848329) rotate(0 0 -11.458439880973401)"><path d="M0 0 C0 -3.82, 0 -19.1, 0 -22.92 M0 0 C0 -3.82, 0 -19.1, 0 -22.92" stroke="#ffffff" stroke-width="4" fill="none"></path></g></g><mask></mask><g stroke-linecap="round"><g transform="translate(80.0126025653426 50.04201667678444) rotate(0 -6.288101536444174 5.961446911174789)"><path d="M0 0 C-2.1 1.99, -10.48 9.94, -12.58 11.92 M0 0 C-2.1 1.99, -10.48 9.94, -12.58 11.92" stroke="#9c36b5" stroke-width="4" fill="none"></path></g></g><mask></mask><g stroke-linecap="round"><g transform="translate(67.43639949245335 62.18453991784099) rotate(0 0 6.524691190550584)"><path d="M0 0 C0 2.17, 0 10.87, 0 13.05 M0 0 C0 2.17, 0 10.87, 0 13.05" stroke="#9c36b5" stroke-width="4" fill="none"></path></g></g><mask></mask><g stroke-linecap="round"><g transform="translate(67.60915580061373 61.79215419097363) rotate(0 6.506184156293784 6.689456949429314)"><path d="M0 0 C2.17 2.23, 10.84 11.15, 13.01 13.38 M0 0 C2.17 2.23, 10.84 11.15, 13.01 13.38" stroke="#9c36b5" stroke-width="4" fill="none"></path></g></g><mask></mask><g stroke-linecap="round" transform="translate(10 10) rotate(0 52.407600545099285 42.841129308579184)"><path d="M21.42 0 C41.37 2.41, 61.48 0.3, 83.39 0 M21.42 0 C33.82 0.41, 46.69 -0.27, 83.39 0 M83.39 0 C97.26 0.36, 106.47 5.64, 104.82 21.42 M83.39 0 C98.04 1.79, 102.84 6.35, 104.82 21.42 M104.82 21.42 C102.56 31.48, 102.78 43.45, 104.82 64.26 M104.82 21.42 C103.73 38.3, 104.2 54.1, 104.82 64.26 M104.82 64.26 C103.9 80.32, 98.29 85.97, 83.39 85.68 M104.82 64.26 C102.92 79.18, 98.54 83.41, 83.39 85.68 M83.39 85.68 C62.52 84.71, 41.29 84.61, 21.42 85.68 M83.39 85.68 C67.36 85.61, 52.84 85.87, 21.42 85.68 M21.42 85.68 C5.35 84.47, 0.09 78.67, 0 64.26 M21.42 85.68 C9.38 83.83, 0.65 79.79, 0 64.26 M0 64.26 C0.56 54.5, -0.45 43.01, 0 21.42 M0 64.26 C0.34 49.72, -0.84 35.39, 0 21.42 M0 21.42 C-1.18 6.41, 5.87 -0.71, 21.42 0 M0 21.42 C0.87 5.39, 5.48 1.02, 21.42 0" stroke="transparent" stroke-width="4" fill="none"></path></g></svg>