<?xml version="1.0" standalone="no"?>
<!DOCTYPE svg PUBLIC "-//W3C//DTD SVG 1.1//EN" "http://www.w3.org/Graphics/SVG/1.1/DTD/svg11.dtd">
<svg version="1.1" xmlns="http://www.w3.org/2000/svg" viewBox="0 0 124.81520109019857 105.68225861715791" width="124.81520109019857" height="105.68225861715791"><!-- svg-source:excalidraw --><metadata></metadata><defs><style class="style-fonts">
      </style></defs><g stroke-linecap="round"><g transform="translate(63.16560447720167 69.91186466050522) rotate(0 0 -18.795391589165092)"><path d="M0 0 C0 -6.27, 0 -31.33, 0 -37.59 M0 0 C0 -6.27, 0 -31.33, 0 -37.59" stroke="#ffffff" stroke-width="4" fill="none"></path></g></g><mask></mask><g stroke-linecap="round"><g transform="translate(37.55811163579983 82.37781444357142) rotate(0 0.006784314061860641 -6.047894232646286)"><path d="M0 0 C0 -2.02, 0.01 -10.08, 0.01 -12.1 M0 0 C0 -2.02, 0.01 -10.08, 0.01 -12.1" class="trichord_electron" stroke="#9c36b5" stroke-width="4" fill="none"></path></g></g><mask></mask><g stroke-linecap="round"><g transform="translate(37.737500226673546 69.26329568650226) rotate(0 5.861655251272623 -5.86812693372417)"><path d="M0 0 C1.95 -1.96, 9.77 -9.78, 11.72 -11.74 M0 0 C1.95 -1.96, 9.77 -9.78, 11.72 -11.74" class="trichord_electron" stroke="#9c36b5" stroke-width="4" fill="none"></path></g></g><mask></mask><g stroke-linecap="round"><g transform="translate(49.902192890985134 57.19304404046352) rotate(0 0 -6.513845137624685)"><path d="M0 0 C0 -2.17, 0 -10.86, 0 -13.03 M0 0 C0 -2.17, 0 -10.86, 0 -13.03" class="trichord_electron" stroke="#9c36b5" stroke-width="4" fill="none"></path></g></g><mask></mask><g stroke-linecap="round"><g transform="translate(75.23552168986498 69.76579142490436) rotate(0 0.006784314061860641 -6.047894232646286)"><path d="M0 0 C0 -2.02, 0.01 -10.08, 0.01 -12.1 M0 0 C0 -2.02, 0.01 -10.08, 0.01 -12.1" stroke="#ffffff" stroke-width="4" fill="none"></path></g></g><mask></mask><g stroke-linecap="round"><g transform="translate(75.4149102807387 56.6512726678352) rotate(0 5.861655251272623 -5.86812693372417)"><path d="M0 0 C1.95 -1.96, 9.77 -9.78, 11.72 -11.74 M0 0 C1.95 -1.96, 9.77 -9.78, 11.72 -11.74" stroke="#ffffff" stroke-width="4" fill="none"></path></g></g><mask></mask><g stroke-linecap="round"><g transform="translate(87.4562604827297 44.58102102179646) rotate(0 0 -6.626499475808032)"><path d="M0 0 C0 -2.21, 0 -11.04, 0 -13.25 M0 0 C0 -2.21, 0 -11.04, 0 -13.25" stroke="#ffffff" stroke-width="4" fill="none"></path></g></g><mask></mask><g stroke-linecap="round" transform="translate(10 10) rotate(0 52.407600545099285 42.84112930857896)"><path d="M21.42 0 C41.47 1.2, 55.76 0.13, 83.39 0 M21.42 0 C40.27 -0.12, 60.3 0.75, 83.39 0 M83.39 0 C96.3 0.34, 103.25 6.24, 104.82 21.42 M83.39 0 C98.05 0.48, 102.73 6, 104.82 21.42 M104.82 21.42 C103.1 36.37, 103.95 48.93, 104.82 64.26 M104.82 21.42 C104.13 33.38, 105.14 46.04, 104.82 64.26 M104.82 64.26 C104.16 77.36, 97.05 84.08, 83.39 85.68 M104.82 64.26 C105.37 77.81, 99.49 84.33, 83.39 85.68 M83.39 85.68 C64.12 85.1, 44.32 84.45, 21.42 85.68 M83.39 85.68 C60.95 85.95, 38.63 85.77, 21.42 85.68 M21.42 85.68 C6.28 84.03, 0.4 78.75, 0 64.26 M21.42 85.68 C9.06 86.64, 1.63 76.44, 0 64.26 M0 64.26 C1.43 54.09, 0.96 44.39, 0 21.42 M0 64.26 C0.34 53.68, 0.97 44.98, 0 21.42 M0 21.42 C-0.42 8.61, 8.28 -0.81, 21.42 0 M0 21.42 C-0.3 7.61, 9.43 0.4, 21.42 0" stroke="transparent" stroke-width="4" fill="none"></path></g></svg>
