<?xml version="1.0" standalone="no"?>
<!DOCTYPE svg PUBLIC "-//W3C//DTD SVG 1.1//EN" "http://www.w3.org/Graphics/SVG/1.1/DTD/svg11.dtd">
<svg version="1.1" xmlns="http://www.w3.org/2000/svg" viewBox="0 0 124.81520109019857 105.68225861715837" width="124.81520109019857" height="105.68225861715837"><!-- svg-source:excalidraw --><metadata></metadata><defs><style class="style-fonts">
      </style></defs><g stroke-linecap="round"><g transform="translate(56.17445573854093 38.76678499657646) rotate(0 -6.003208570345123 6.110408723386627)"><path d="M0 0 C-2 2.04, -10.01 10.18, -12.01 12.22 M0 0 C-2 2.04, -10.01 10.18, -12.01 12.22" stroke="#ffffff" stroke-width="4" fill="none"></path></g></g><mask></mask><g stroke-linecap="round"><g transform="translate(43.52483767960257 51.63080336159874) rotate(0 -0.1072001530419584 12.771009531597429)"><path d="M0 0 C-0.04 4.26, -0.18 21.29, -0.21 25.54 M0 0 C-0.04 4.26, -0.18 21.29, -0.21 25.54" stroke="#ffffff" stroke-width="4" fill="none"></path></g></g><mask></mask><g stroke-linecap="round"><g transform="translate(56.55164466946644 63.91579027987609) rotate(0 -0.06357667743304773 -5.945986522548992)"><path d="M0 0 C-0.02 -1.98, -0.11 -9.91, -0.13 -11.89 M0 0 C-0.02 -1.98, -0.11 -9.91, -0.13 -11.89" stroke="#ffffff" stroke-width="4" fill="none"></path></g></g><mask></mask><g stroke-linecap="round"><g transform="translate(56.547160966973934 51.32165861882822) rotate(0 5.897969957402893 -5.736381739392073)"><path d="M0 0 C1.97 -1.91, 9.83 -9.56, 11.8 -11.47 M0 0 C1.97 -1.91, 9.83 -9.56, 11.8 -11.47" stroke="#ffffff" stroke-width="4" fill="none"></path></g></g><mask></mask><g stroke-linecap="round"><g transform="translate(68.77319094669747 39.2620879558126) rotate(0 0 -5.933975472925795)"><path d="M0 0 C0 -1.98, 0 -9.89, 0 -11.87 M0 0 C0 -1.98, 0 -9.89, 0 -11.87" stroke="#ffffff" stroke-width="4" fill="none"></path></g></g><mask></mask><g stroke-linecap="round"><g transform="translate(55.90367753131795 76.74424627519329) rotate(0 12.418739888547407 -12.418739888547407)"><path d="M0 0 C4.14 -4.14, 20.7 -20.7, 24.84 -24.84 M0 0 C4.14 -4.14, 20.7 -20.7, 24.84 -24.84" class="trichord_electron" stroke="#9c36b5" stroke-width="4" fill="none"></path></g></g><mask></mask><g stroke-linecap="round"><g transform="translate(68.93954702165502 63.12265007122187) rotate(0 0 -5.7313836004859695)"><path d="M0 0 C0 -1.91, 0 -9.55, 0 -11.46 M0 0 C0 -1.91, 0 -9.55, 0 -11.46" class="trichord_electron" stroke="#9c36b5" stroke-width="4" fill="none"></path></g></g><mask></mask><g stroke-linecap="round" transform="translate(10 10) rotate(0 52.407600545099285 42.841129308579184)"><path d="M21.42 0 C41.37 2.41, 61.48 0.3, 83.39 0 M21.42 0 C33.82 0.41, 46.69 -0.27, 83.39 0 M83.39 0 C97.26 0.36, 106.47 5.64, 104.82 21.42 M83.39 0 C98.04 1.79, 102.84 6.35, 104.82 21.42 M104.82 21.42 C102.56 31.48, 102.78 43.45, 104.82 64.26 M104.82 21.42 C103.73 38.3, 104.2 54.1, 104.82 64.26 M104.82 64.26 C103.9 80.32, 98.29 85.97, 83.39 85.68 M104.82 64.26 C102.92 79.18, 98.54 83.41, 83.39 85.68 M83.39 85.68 C62.52 84.71, 41.29 84.61, 21.42 85.68 M83.39 85.68 C67.36 85.61, 52.84 85.87, 21.42 85.68 M21.42 85.68 C5.35 84.47, 0.09 78.67, 0 64.26 M21.42 85.68 C9.38 83.83, 0.65 79.79, 0 64.26 M0 64.26 C0.56 54.5, -0.45 43.01, 0 21.42 M0 64.26 C0.34 49.72, -0.84 35.39, 0 21.42 M0 21.42 C-1.18 6.41, 5.87 -0.71, 21.42 0 M0 21.42 C0.87 5.39, 5.48 1.02, 21.42 0" stroke="transparent" stroke-width="4" fill="none"></path></g></svg>
