<?xml version="1.0" standalone="no"?>
<!DOCTYPE svg PUBLIC "-//W3C//DTD SVG 1.1//EN" "http://www.w3.org/Graphics/SVG/1.1/DTD/svg11.dtd">
<svg version="1.1" xmlns="http://www.w3.org/2000/svg" viewBox="0 0 124.81520109019857 105.68225861715791" width="124.81520109019857" height="105.68225861715791"><!-- svg-source:excalidraw --><metadata></metadata><defs><style class="style-fonts">
      </style></defs><g stroke-linecap="round"><g transform="translate(61.57297637348256 71.85960986131477) rotate(0 12.215556142107744 -12.256310419109695)"><path d="M0 0 C4.07 -4.09, 20.36 -20.43, 24.43 -24.51 M0 0 C4.07 -4.09, 20.36 -20.43, 24.43 -24.51" stroke="#ffffff" stroke-width="4" fill="none"></path></g></g><mask></mask><g stroke-linecap="round"><g transform="translate(85.80280601331287 46.910910971526846) rotate(0 -6.096462717953727 -5.950455068715655)"><path d="M0 0 C-2.03 -1.98, -10.16 -9.92, -12.19 -11.9 M0 0 C-2.03 -1.98, -10.16 -9.92, -12.19 -11.9" stroke="#ffffff" stroke-width="4" fill="none"></path></g></g><mask></mask><g stroke-linecap="round"><g transform="translate(61.06123591929918 34.57603568759305) rotate(0 -6.3990774883127415 6.3990774883127415)"><path d="M0 0 C-2.13 2.13, -10.67 10.67, -12.8 12.8 M0 0 C-2.13 2.13, -10.67 10.67, -12.8 12.8" stroke="#ffffff" stroke-width="4" fill="none"></path></g></g><mask></mask><g stroke-linecap="round"><g transform="translate(48.32839768196118 47.538648685601856) rotate(0 6.160676868205883 5.966426562001288)"><path d="M0 0 C2.05 1.99, 10.27 9.94, 12.32 11.93 M0 0 C2.05 1.99, 10.27 9.94, 12.32 11.93" stroke="#ffffff" stroke-width="4" fill="none"></path></g></g><mask></mask><g stroke-linecap="round"><g transform="translate(60.871484220459934 59.69799718900549) rotate(0 -6.097652057391315 6.115375243876997)"><path d="M0 0 C-2.03 2.04, -10.16 10.19, -12.2 12.23 M0 0 C-2.03 2.04, -10.16 10.19, -12.2 12.23" stroke="#ffffff" stroke-width="4" fill="none"></path></g></g><mask></mask><g stroke-linecap="round"><g transform="translate(73.6098800022728 47.75776147872284) rotate(0 -6.382873185001245 -0.03828191878596954)"><path d="M0 0 C-2.13 -0.01, -10.64 -0.06, -12.77 -0.08 M0 0 C-2.13 -0.01, -10.64 -0.06, -12.77 -0.08" class="trichord_electron" stroke="#9c36b5" stroke-width="4" fill="none"></path></g></g><mask></mask><g stroke-linecap="round"><g transform="translate(60.666096636198745 47.93188670023983) rotate(0 -6.08518259497896 5.765042733890596)"><path d="M0 0 C-2.03 1.92, -10.14 9.61, -12.17 11.53 M0 0 C-2.03 1.92, -10.14 9.61, -12.17 11.53" class="trichord_electron" stroke="#9c36b5" stroke-width="4" fill="none"></path></g></g><mask></mask><g stroke-linecap="round"><g transform="translate(47.86548333809242 59.697997397626295) rotate(0 -5.6883473915117975 -2.2737367544323206e-13)"><path d="M0 0 C-1.9 0, -9.48 0, -11.38 0 M0 0 C-1.9 0, -9.48 0, -11.38 0" class="trichord_electron" stroke="#9c36b5" stroke-width="4" fill="none"></path></g></g><mask></mask><g stroke-linecap="round" transform="translate(10 10) rotate(0 52.407600545099285 42.84112930857896)"><path d="M21.42 0 C41.37 2.41, 61.48 0.3, 83.39 0 M21.42 0 C33.82 0.41, 46.69 -0.27, 83.39 0 M83.39 0 C97.26 0.36, 106.47 5.64, 104.82 21.42 M83.39 0 C98.04 1.79, 102.84 6.35, 104.82 21.42 M104.82 21.42 C102.56 31.48, 102.78 43.45, 104.82 64.26 M104.82 21.42 C103.73 38.3, 104.2 54.1, 104.82 64.26 M104.82 64.26 C103.9 80.32, 98.29 85.97, 83.39 85.68 M104.82 64.26 C102.92 79.18, 98.54 83.41, 83.39 85.68 M83.39 85.68 C62.52 84.71, 41.29 84.61, 21.42 85.68 M83.39 85.68 C67.36 85.61, 52.84 85.87, 21.42 85.68 M21.42 85.68 C5.35 84.47, 0.09 78.67, 0 64.26 M21.42 85.68 C9.38 83.83, 0.65 79.79, 0 64.26 M0 64.26 C0.56 54.5, -0.45 43.01, 0 21.42 M0 64.26 C0.34 49.72, -0.84 35.39, 0 21.42 M0 21.42 C-1.18 6.41, 5.87 -0.71, 21.42 0 M0 21.42 C0.87 5.39, 5.48 1.02, 21.42 0" stroke="transparent" stroke-width="4" fill="none"></path></g></svg>
