<?xml version="1.0" standalone="no"?>
<!DOCTYPE svg PUBLIC "-//W3C//DTD SVG 1.1//EN" "http://www.w3.org/Graphics/SVG/1.1/DTD/svg11.dtd">
<svg version="1.1" xmlns="http://www.w3.org/2000/svg" viewBox="0 0 124.81520109019857 105.68225861715791" width="124.81520109019857" height="105.68225861715791"><!-- svg-source:excalidraw --><metadata></metadata><defs><style class="style-fonts">
      </style></defs><g stroke-linecap="round" transform="translate(10 10) rotate(0 52.407600545099285 42.84112930857896)"><path d="M21.42 0 C41.47 1.2, 55.76 0.13, 83.39 0 M21.42 0 C40.27 -0.12, 60.3 0.75, 83.39 0 M83.39 0 C96.3 0.34, 103.25 6.24, 104.82 21.42 M83.39 0 C98.05 0.48, 102.73 6, 104.82 21.42 M104.82 21.42 C103.1 36.37, 103.95 48.93, 104.82 64.26 M104.82 21.42 C104.13 33.38, 105.14 46.04, 104.82 64.26 M104.82 64.26 C104.16 77.36, 97.05 84.08, 83.39 85.68 M104.82 64.26 C105.37 77.81, 99.49 84.33, 83.39 85.68 M83.39 85.68 C64.12 85.1, 44.32 84.45, 21.42 85.68 M83.39 85.68 C60.95 85.95, 38.63 85.77, 21.42 85.68 M21.42 85.68 C6.28 84.03, 0.4 78.75, 0 64.26 M21.42 85.68 C9.06 86.64, 1.63 76.44, 0 64.26 M0 64.26 C1.43 54.09, 0.96 44.39, 0 21.42 M0 64.26 C0.34 53.68, 0.97 44.98, 0 21.42 M0 21.42 C-0.42 8.61, 8.28 -0.81, 21.42 0 M0 21.42 C-0.3 7.61, 9.43 0.4, 21.42 0" stroke="transparent" stroke-width="4" fill="none"></path></g><g stroke-linecap="round"><g transform="translate(75.62770701177215 34.84002781892832) rotate(0 -6.465116380952622 6.242181333333519)"><path d="M0 0 C-2.16 2.08, -10.78 10.4, -12.93 12.48 M0 0 C-2.16 2.08, -10.78 10.4, -12.93 12.48" stroke="#ffffff" stroke-width="4" fill="none"></path></g></g><mask></mask><g stroke-linecap="round"><g transform="translate(62.47453920224689 47.54732553321537) rotate(0 6.0192462857144164 6.130713809523968)"><path d="M0 0 C2.01 2.04, 10.03 10.22, 12.04 12.26 M0 0 C2.01 2.04, 10.03 10.22, 12.04 12.26" stroke="#ffffff" stroke-width="4" fill="none"></path></g></g><mask></mask><g stroke-linecap="round"><g transform="translate(74.95890186891302 60.03168819988059) rotate(0 -6.242181333333974 6.130713809523968)"><path d="M0 0 C-2.08 2.04, -10.4 10.22, -12.48 12.26 M0 0 C-2.08 2.04, -10.4 10.22, -12.48 12.26" stroke="#ffffff" stroke-width="4" fill="none"></path></g></g><mask></mask><g stroke-linecap="round"><g transform="translate(88.56351568164428 34.84002812640574) rotate(0 -6.465116380952622 6.242181333333519)"><path d="M0 0 C-2.16 2.08, -10.78 10.4, -12.93 12.48 M0 0 C-2.16 2.08, -10.78 10.4, -12.93 12.48" stroke="#ffffff" stroke-width="4" fill="none"></path></g></g><mask></mask><g stroke-linecap="round"><g transform="translate(75.4103478721172 47.54732584069279) rotate(0 6.0192462857144164 6.130713809523968)"><path d="M0 0 C2.01 2.04, 10.03 10.22, 12.04 12.26 M0 0 C2.01 2.04, 10.03 10.22, 12.04 12.26" stroke="#ffffff" stroke-width="4" fill="none"></path></g></g><mask></mask><g stroke-linecap="round"><g transform="translate(87.89471053878333 60.0316885073571) rotate(0 -6.242181333333974 6.130713809523968)"><path d="M0 0 C-2.08 2.04, -10.4 10.22, -12.48 12.26 M0 0 C-2.08 2.04, -10.4 10.22, -12.48 12.26" stroke="#ffffff" stroke-width="4" fill="none"></path></g></g><mask></mask><g stroke-linecap="round"><g transform="translate(37.21615327896325 34.840027374284546) rotate(0 6.253246716462854 0.12025474454753748)"><path d="M0 0 C2.08 0.04, 10.42 0.2, 12.51 0.24 M0 0 C2.08 0.04, 10.42 0.2, 12.51 0.24" class="trichord_electron" stroke="#9c36b5" stroke-width="4" fill="none"></path></g></g><mask></mask><g stroke-linecap="round"><g transform="translate(37.216154007232035 59.845943743483076) rotate(0 6.114519432885118 0)"><path d="M0 0 C2.04 0, 10.19 0, 12.23 0 M0 0 C2.04 0, 10.19 0, 12.23 0" class="trichord_electron" stroke="#9c36b5" stroke-width="4" fill="none"></path></g></g><mask></mask></svg>
