<?xml version="1.0" standalone="no"?>
<!DOCTYPE svg PUBLIC "-//W3C//DTD SVG 1.1//EN" "http://www.w3.org/Graphics/SVG/1.1/DTD/svg11.dtd">
<svg version="1.1" xmlns="http://www.w3.org/2000/svg" viewBox="0 0 124.81520109019857 105.68225861715837" width="124.81520109019857" height="105.68225861715837"><!-- svg-source:excalidraw --><metadata></metadata><defs><style class="style-fonts">
      </style></defs><g stroke-linecap="round"><g transform="translate(66.1680520956561 70.90369538463256) rotate(180 -5.709794414328826 -5.709794414328371)"><path d="M0 0 C-1.9 -1.9, -9.52 -9.52, -11.42 -11.42 M0 0 C-1.9 -1.9, -9.52 -9.52, -11.42 -11.42" class="trichord_electron" stroke="#9c36b5" stroke-width="4" fill="none"></path></g></g><mask></mask><g stroke-linecap="round"><g transform="translate(66.52830588942743 83.01381009903707) rotate(180 0 -5.294242255460631)"><path d="M0 0 C0 -1.76, 0 -8.82, 0 -10.59 M0 0 C0 -1.76, 0 -8.82, 0 -10.59" class="trichord_electron" stroke="#9c36b5" stroke-width="4" fill="none"></path></g></g><mask></mask><g stroke-linecap="round"><g transform="translate(79.45926123758545 71.41730123384332) rotate(180 -6.4451120232502035 0)"><path d="M0 0 C-2.15 0, -10.74 0, -12.89 0 M0 0 C-2.15 0, -10.74 0, -12.89 0" class="trichord_electron" stroke="#9c36b5" stroke-width="4" fill="none"></path></g></g><mask></mask><g stroke-linecap="round"><g transform="translate(39.967489839342306 33.98758107372305) rotate(538.8782627351276 0.10902253808626483 -5.567910939708327)"><path d="M0 0 C0.01 -0.7, 0.05 -2.33, 0.08 -4.19 C0.12 -6.05, 0.2 -9.98, 0.22 -11.14 M0 0 C0.01 -0.7, 0.05 -2.33, 0.08 -4.19 C0.12 -6.05, 0.2 -9.98, 0.22 -11.14" stroke="#ffffff" stroke-width="4" fill="none"></path></g></g><mask></mask><g stroke-linecap="round"><g transform="translate(64.76642954870294 59.07638815328755) rotate(538.8782627351276 -12.083843188781884 -12.566509679595583)"><path d="M0 0 C-4.03 -4.19, -20.14 -20.94, -24.17 -25.13 M0 0 C-4.03 -4.19, -20.14 -20.94, -24.17 -25.13" stroke="#ffffff" stroke-width="4" fill="none"></path></g></g><mask></mask><g stroke-linecap="round"><g transform="translate(52.43429602638025 33.98758042990721) rotate(538.8782627351276 0.10902253808626483 -5.567910939708327)"><path d="M0 0 C0.01 -0.7, 0.05 -2.33, 0.08 -4.19 C0.12 -6.05, 0.2 -9.98, 0.22 -11.14 M0 0 C0.01 -0.7, 0.05 -2.33, 0.08 -4.19 C0.12 -6.05, 0.2 -9.98, 0.22 -11.14" stroke="#ffffff" stroke-width="4" fill="none"></path></g></g><mask></mask><g stroke-linecap="round"><g transform="translate(77.23323573573907 59.076387509471715) rotate(538.8782627351276 -12.083843188781884 -12.566509679595583)"><path d="M0 0 C-4.03 -4.19, -20.14 -20.94, -24.17 -25.13 M0 0 C-4.03 -4.19, -20.14 -20.94, -24.17 -25.13" stroke="#ffffff" stroke-width="4" fill="none"></path></g></g><mask></mask><g stroke-linecap="round" transform="translate(10 10) rotate(0 52.407600545099285 42.841129308579184)"><path d="M21.42 0 C41.37 2.41, 61.48 0.3, 83.39 0 M21.42 0 C33.82 0.41, 46.69 -0.27, 83.39 0 M83.39 0 C97.26 0.36, 106.47 5.64, 104.82 21.42 M83.39 0 C98.04 1.79, 102.84 6.35, 104.82 21.42 M104.82 21.42 C102.56 31.48, 102.78 43.45, 104.82 64.26 M104.82 21.42 C103.73 38.3, 104.2 54.1, 104.82 64.26 M104.82 64.26 C103.9 80.32, 98.29 85.97, 83.39 85.68 M104.82 64.26 C102.92 79.18, 98.54 83.41, 83.39 85.68 M83.39 85.68 C62.52 84.71, 41.29 84.61, 21.42 85.68 M83.39 85.68 C67.36 85.61, 52.84 85.87, 21.42 85.68 M21.42 85.68 C5.35 84.47, 0.09 78.67, 0 64.26 M21.42 85.68 C9.38 83.83, 0.65 79.79, 0 64.26 M0 64.26 C0.56 54.5, -0.45 43.01, 0 21.42 M0 64.26 C0.34 49.72, -0.84 35.39, 0 21.42 M0 21.42 C-1.18 6.41, 5.87 -0.71, 21.42 0 M0 21.42 C0.87 5.39, 5.48 1.02, 21.42 0" stroke="transparent" stroke-width="4" fill="none"></path></g></svg>
