<?xml version="1.0" standalone="no"?>
<!DOCTYPE svg PUBLIC "-//W3C//DTD SVG 1.1//EN" "http://www.w3.org/Graphics/SVG/1.1/DTD/svg11.dtd">
<svg version="1.1" xmlns="http://www.w3.org/2000/svg" viewBox="0 0 124.81520109019857 105.68225861715837" width="124.81520109019857" height="105.68225861715837"><!-- svg-source:excalidraw --><metadata></metadata><defs><style class="style-fonts">
      </style></defs><g stroke-linecap="round"><g transform="translate(52.3654656775052 40.52885113130287) rotate(178.81881108667483 0 5.952260051664325)"><path d="M0 0 C0 1.98, 0 9.92, 0 11.9 M0 0 C0 1.98, 0 9.92, 0 11.9" stroke="#ffffff" stroke-width="4" fill="none"></path></g></g><mask></mask><g stroke-linecap="round"><g transform="translate(39.533295510394964 27.888927698348198) rotate(178.81881108667483 6.244262597625038 6.2046470273285195)"><path d="M0 0 C2.08 2.07, 10.41 10.34, 12.49 12.41 M0 0 C2.08 2.07, 10.41 10.34, 12.49 12.41" stroke="#ffffff" stroke-width="4" fill="none"></path></g></g><mask></mask><g stroke-linecap="round"><g transform="translate(52.64209923649105 52.440042164033) rotate(178.81881108667483 6.094936751881505 6.056268551822541)"><path d="M0 0 C2.03 2.02, 10.16 10.09, 12.19 12.11 M0 0 C2.03 2.02, 10.16 10.09, 12.19 12.11" stroke="#ffffff" stroke-width="4" fill="none"></path></g></g><mask></mask><g stroke-linecap="round"><g transform="translate(76.85542242019346 52.488046902242786) rotate(178.81881108667483 -12.44158771689763 -12.437509762611171)"><path d="M0 0 C-4.15 -4.15, -20.74 -20.73, -24.88 -24.88 M0 0 C-4.15 -4.15, -20.74 -20.73, -24.88 -24.88" stroke="#ffffff" stroke-width="4" fill="none"></path></g></g><mask></mask><g stroke-linecap="round"><g transform="translate(77.35637484644576 63.747405140800765) rotate(178.81881108667483 0 -5.809682599609914)"><path d="M0 0 C0 -1.94, 0 -9.68, 0 -11.62 M0 0 C0 -1.94, 0 -9.68, 0 -11.62" stroke="#ffffff" stroke-width="4" fill="none"></path></g></g><mask></mask><g stroke-linecap="round"><g transform="translate(64.99601528284802 52.3923577536998) rotate(359.7736523405482 -6.177746142798242 6.18336286896465)"><path d="M0 0 C-2.06 2.06, -10.3 10.31, -12.36 12.37 M0 0 C-2.06 2.06, -10.3 10.31, -12.36 12.37" class="trichord_electron" stroke="#9c36b5" stroke-width="4" fill="none"></path></g></g><mask></mask><g stroke-linecap="round"><g transform="translate(52.65931491820356 64.88793503154011) rotate(359.7736523405482 6.246596057822444 5.754865245012752)"><path d="M0 0 C2.08 1.92, 10.41 9.59, 12.49 11.51 M0 0 C2.08 1.92, 10.41 9.59, 12.49 11.51" class="trichord_electron" stroke="#9c36b5" stroke-width="4" fill="none"></path></g></g><mask></mask><g stroke-linecap="round"><g transform="translate(65.38596501106349 76.44963045163058) rotate(359.7736523405482 6.190648851702008 -0.10317748086163192)"><path d="M0 0 C2.06 -0.03, 10.32 -0.17, 12.38 -0.21 M0 0 C2.06 -0.03, 10.32 -0.17, 12.38 -0.21" class="trichord_electron" stroke="#9c36b5" stroke-width="4" fill="none"></path></g></g><mask></mask><g stroke-linecap="round" transform="translate(10 10) rotate(0 52.407600545099285 42.841129308579184)"><path d="M21.42 0 C41.37 2.41, 61.48 0.3, 83.39 0 M21.42 0 C33.82 0.41, 46.69 -0.27, 83.39 0 M83.39 0 C97.26 0.36, 106.47 5.64, 104.82 21.42 M83.39 0 C98.04 1.79, 102.84 6.35, 104.82 21.42 M104.82 21.42 C102.56 31.48, 102.78 43.45, 104.82 64.26 M104.82 21.42 C103.73 38.3, 104.2 54.1, 104.82 64.26 M104.82 64.26 C103.9 80.32, 98.29 85.97, 83.39 85.68 M104.82 64.26 C102.92 79.18, 98.54 83.41, 83.39 85.68 M83.39 85.68 C62.52 84.71, 41.29 84.61, 21.42 85.68 M83.39 85.68 C67.36 85.61, 52.84 85.87, 21.42 85.68 M21.42 85.68 C5.35 84.47, 0.09 78.67, 0 64.26 M21.42 85.68 C9.38 83.83, 0.65 79.79, 0 64.26 M0 64.26 C0.56 54.5, -0.45 43.01, 0 21.42 M0 64.26 C0.34 49.72, -0.84 35.39, 0 21.42 M0 21.42 C-1.18 6.41, 5.87 -0.71, 21.42 0 M0 21.42 C0.87 5.39, 5.48 1.02, 21.42 0" stroke="transparent" stroke-width="4" fill="none"></path></g></svg>
