<?xml version="1.0" standalone="no"?>
<!DOCTYPE svg PUBLIC "-//W3C//DTD SVG 1.1//EN" "http://www.w3.org/Graphics/SVG/1.1/DTD/svg11.dtd">
<svg version="1.1" xmlns="http://www.w3.org/2000/svg" viewBox="0 0 124.81520109019857 105.68225861715791" width="124.81520109019857" height="105.68225861715791"><!-- svg-source:excalidraw --><metadata></metadata><defs><style class="style-fonts">
      </style></defs><g stroke-linecap="round" transform="translate(10 10) rotate(0 52.407600545099285 42.84112930857896)"><path d="M21.42 0 C41.47 1.2, 55.76 0.13, 83.39 0 M21.42 0 C40.27 -0.12, 60.3 0.75, 83.39 0 M83.39 0 C96.3 0.34, 103.25 6.24, 104.82 21.42 M83.39 0 C98.05 0.48, 102.73 6, 104.82 21.42 M104.82 21.42 C103.1 36.37, 103.95 48.93, 104.82 64.26 M104.82 21.42 C104.13 33.38, 105.14 46.04, 104.82 64.26 M104.82 64.26 C104.16 77.36, 97.05 84.08, 83.39 85.68 M104.82 64.26 C105.37 77.81, 99.49 84.33, 83.39 85.68 M83.39 85.68 C64.12 85.1, 44.32 84.45, 21.42 85.68 M83.39 85.68 C60.95 85.95, 38.63 85.77, 21.42 85.68 M21.42 85.68 C6.28 84.03, 0.4 78.75, 0 64.26 M21.42 85.68 C9.06 86.64, 1.63 76.44, 0 64.26 M0 64.26 C1.43 54.09, 0.96 44.39, 0 21.42 M0 64.26 C0.34 53.68, 0.97 44.98, 0 21.42 M0 21.42 C-0.42 8.61, 8.28 -0.81, 21.42 0 M0 21.42 C-0.3 7.61, 9.43 0.4, 21.42 0" stroke="transparent" stroke-width="4" fill="none"></path></g><g stroke-linecap="round"><g transform="translate(75.66654934064718 61.78822786027308) rotate(179.17752526943138 -6.06667567777049 5.806399401433964)"><path d="M0 0 C-2.02 1.94, -10.11 9.68, -12.13 11.61 M0 0 C-2.02 1.94, -10.11 9.68, -12.13 11.61" stroke="#ffffff" stroke-width="4" fill="none"></path></g></g><mask></mask><g stroke-linecap="round"><g transform="translate(75.89742402973934 36.22521811836236) rotate(179.17752526943138 -0.18196788475597714 12.67549660716736)"><path d="M0 0 C-0.06 4.23, -0.3 21.13, -0.36 25.35 M0 0 C-0.06 4.23, -0.3 21.13, -0.36 25.35" stroke="#ffffff" stroke-width="4" fill="none"></path></g></g><mask></mask><g stroke-linecap="round"><g transform="translate(51.26795077008137 37.490579003842186) rotate(0 0 18.721295019421177)"><path d="M0 0 C0 6.24, 0 31.2, 0 37.44 M0 0 C0 6.24, 0 31.2, 0 37.44" stroke="#ffffff" stroke-width="4" fill="none"></path></g></g><mask></mask><g stroke-linecap="round"><g transform="translate(63.19869555667901 36.93475089946992) rotate(179.17752526943138 6.040133878129382 -6.098519677937702)"><path d="M0 0 C2.01 -2.03, 10.07 -10.16, 12.08 -12.2 M0 0 C2.01 -2.03, 10.07 -10.16, 12.08 -12.2" class="trichord_electron" stroke="#9c36b5" stroke-width="4" fill="none"></path></g></g><mask></mask><g stroke-linecap="round"><g transform="translate(63.25232280608725 62.07770249054306) rotate(179.17752526943138 0.06936425818958014 -12.239139963776779)"><path d="M0 0 C0.02 -4.08, 0.12 -20.4, 0.14 -24.48 M0 0 C0.02 -4.08, 0.12 -20.4, 0.14 -24.48" class="trichord_electron" stroke="#9c36b5" stroke-width="4" fill="none"></path></g></g><mask></mask></svg>
