<?xml version="1.0" standalone="no"?>
<!DOCTYPE svg PUBLIC "-//W3C//DTD SVG 1.1//EN" "http://www.w3.org/Graphics/SVG/1.1/DTD/svg11.dtd">
<svg version="1.1" xmlns="http://www.w3.org/2000/svg" viewBox="0 0 57.12109144720398 32.01679975647539" width="57.12109144720398" height="32.01679975647539"><!-- svg-source:excalidraw --><metadata></metadata><defs><style class="style-fonts">
      </style></defs><g stroke-linecap="round"><g transform="translate(47.12109144720398 10.076563837571939) rotate(0 -6.382873185001245 -0.03828191878596954)"><path d="M0 0 C-2.13 -0.01, -10.64 -0.06, -12.77 -0.08 M0 0 C-2.13 -0.01, -10.64 -0.06, -12.77 -0.08" stroke="#9c36b5" stroke-width="4" fill="none"></path></g></g><mask></mask><g stroke-linecap="round"><g transform="translate(34.17730808112992 10.250689059088927) rotate(0 -6.08518259497896 5.765042733890596)"><path d="M0 0 C-2.03 1.92, -10.14 9.61, -12.17 11.53 M0 0 C-2.03 1.92, -10.14 9.61, -12.17 11.53" stroke="#9c36b5" stroke-width="4" fill="none"></path></g></g><mask></mask><g stroke-linecap="round"><g transform="translate(21.376694783023595 22.016799756475393) rotate(0 -5.6883473915117975 -2.2737367544323206e-13)"><path d="M0 0 C-1.9 0, -9.48 0, -11.38 0 M0 0 C-1.9 0, -9.48 0, -11.38 0" stroke="#9c36b5" stroke-width="4" fill="none"></path></g></g><mask></mask></svg>