<?xml version="1.0" standalone="no"?>
<!DOCTYPE svg PUBLIC "-//W3C//DTD SVG 1.1//EN" "http://www.w3.org/Graphics/SVG/1.1/DTD/svg11.dtd">
<svg version="1.1" xmlns="http://www.w3.org/2000/svg" viewBox="0 0 55.779035175964054 80.20858654990161" width="55.779035175964054" height="80.20858654990161"><!-- svg-source:excalidraw --><metadata></metadata><defs><style class="style-fonts">
      </style></defs><g stroke-linecap="round"><g transform="translate(45.73012837163242 58.509302494902386) rotate(179.17752526943138 -6.06667567777049 5.806399401433964)"><path d="M0 0 C-2.02 1.94, -10.11 9.68, -12.13 11.61 M0 0 C-2.02 1.94, -10.11 9.68, -12.13 11.61" stroke="#ffffff" stroke-width="4" fill="none"></path></g></g><mask></mask><g stroke-linecap="round"><g transform="translate(45.95467441746678 33.82801788900633) rotate(179.17752526943138 -0.1756392415022674 12.234656751297507)"><path d="M0 0 C-0.06 4.08, -0.29 20.39, -0.35 24.47 M0 0 C-0.06 4.08, -0.29 20.39, -0.35 24.47" stroke="#ffffff" stroke-width="4" fill="none"></path></g></g><mask></mask><g stroke-linecap="round"><g transform="translate(33.1675939222896 46.21187078282037) rotate(0 0 -6.049970873111533)" fill-rule="evenodd"><path d="M0 0 C0 -2.02, 0 -11.13, 0 -12.1 C0 -13.07, 0 -6.85, 0 -5.8" stroke="none" stroke-width="0" fill="#b2f2bb" fill-rule="evenodd"></path><path d="M0 0 C0 -2.02, 0 -11.13, 0 -12.1 C0 -13.07, 0 -6.85, 0 -5.8 M0 0 C0 -2.02, 0 -11.13, 0 -12.1 C0 -13.07, 0 -6.85, 0 -5.8" stroke="#ffffff" stroke-width="4" fill="none"></path></g></g><mask></mask><g stroke-linecap="round"><g transform="translate(33.068798245000835 34.25759770459035) rotate(0 -11.534399122500417 -12.128798852295176)"><path d="M0 0 C-3.84 -4.04, -19.22 -20.21, -23.07 -24.26 M0 0 C-3.84 -4.04, -19.22 -20.21, -23.07 -24.26" stroke="#ffffff" stroke-width="4" fill="none"></path></g></g><mask></mask></svg>