<?xml version="1.0" standalone="no"?>
<!DOCTYPE svg PUBLIC "-//W3C//DTD SVG 1.1//EN" "http://www.w3.org/Graphics/SVG/1.1/DTD/svg11.dtd">
<svg version="1.1" xmlns="http://www.w3.org/2000/svg" viewBox="0 0 57.74100771502435 57.35271198916644" width="57.74100771502435" height="57.35271198916644"><!-- svg-source:excalidraw --><metadata></metadata><defs><style class="style-fonts">
      </style></defs><g stroke-linecap="round"><g transform="translate(23.309895430808865 47.28357417372172) rotate(0 12.215556142107744 -12.256310419109695)"><path d="M0 0 C4.07 -4.09, 20.36 -20.43, 24.43 -24.51 M0 0 C4.07 -4.09, 20.36 -20.43, 24.43 -24.51" stroke="#ffffff" stroke-width="4" fill="none"></path></g></g><mask></mask><g stroke-linecap="round"><g transform="translate(22.798154976625483 10) rotate(0 -6.3990774883127415 6.3990774883127415)"><path d="M0 0 C-2.13 2.13, -10.67 10.67, -12.8 12.8 M0 0 C-2.13 2.13, -10.67 10.67, -12.8 12.8" stroke="#ffffff" stroke-width="4" fill="none"></path></g></g><mask></mask><g stroke-linecap="round"><g transform="translate(10.065316739287482 22.962612998008808) rotate(0 6.160676868205883 5.966426562001288)"><path d="M0 0 C2.05 1.99, 10.27 9.94, 12.32 11.93 M0 0 C2.05 1.99, 10.27 9.94, 12.32 11.93" stroke="#ffffff" stroke-width="4" fill="none"></path></g></g><mask></mask><g stroke-linecap="round"><g transform="translate(22.608403277786238 35.12196150141244) rotate(0 -6.097652057391315 6.115375243876997)"><path d="M0 0 C-2.03 2.04, -10.16 10.19, -12.2 12.23 M0 0 C-2.03 2.04, -10.16 10.19, -12.2 12.23" stroke="#ffffff" stroke-width="4" fill="none"></path></g></g><mask></mask></svg>