<?xml version="1.0" standalone="no"?>
<!DOCTYPE svg PUBLIC "-//W3C//DTD SVG 1.1//EN" "http://www.w3.org/Graphics/SVG/1.1/DTD/svg11.dtd">
<svg version="1.1" xmlns="http://www.w3.org/2000/svg" viewBox="0 0 69.19458898143785 82.06960288765458" width="69.19458898143785" height="82.06960288765458"><!-- svg-source:excalidraw --><metadata></metadata><defs><style class="style-fonts">
      </style></defs><g stroke-linecap="round"><g transform="translate(46.50588748566042 10) rotate(0 6.313939239782485 6.313939239782485)"><path d="M0 0 C2.1 2.1, 10.52 10.52, 12.63 12.63 M0 0 C2.1 2.1, 10.52 10.52, 12.63 12.63" stroke="#ffffff" stroke-width="4" fill="none"></path></g></g><mask></mask><g stroke-linecap="round"><g transform="translate(59.194588981437846 22.946148047372844) rotate(0 -12.396851425187378 12.396851425187378)"><path d="M0 0 C-4.13 4.13, -20.66 20.66, -24.79 24.79 M0 0 C-4.13 4.13, -20.66 20.66, -24.79 24.79" stroke="#ffffff" stroke-width="4" fill="none"></path></g></g><mask></mask><g stroke-linecap="round"><g transform="translate(34.78653245724854 59.69007626341772) rotate(180.85003482719833 -12.483710971562687 -12.100523725290714)"><path d="M0 0 C-4.16 -4.03, -20.81 -20.17, -24.97 -24.2 M0 0 C-4.16 -4.03, -20.81 -20.17, -24.97 -24.2" stroke="#ffffff" stroke-width="4" fill="none"></path></g></g><mask></mask><g stroke-linecap="round"><g transform="translate(34.55611589788896 72.07024224346969) rotate(180.85003482719833 0 -5.809682599609914)"><path d="M0 0 C0 -1.94, 0 -9.68, 0 -11.62 M0 0 C0 -1.94, 0 -9.68, 0 -11.62" stroke="#ffffff" stroke-width="4" fill="none"></path></g></g><mask></mask></svg>