<?xml version="1.0" standalone="no"?>
<!DOCTYPE svg PUBLIC "-//W3C//DTD SVG 1.1//EN" "http://www.w3.org/Graphics/SVG/1.1/DTD/svg11.dtd">
<svg version="1.1" xmlns="http://www.w3.org/2000/svg" viewBox="0 0 56.90336787547767 57.70927418075371" width="56.90336787547767" height="57.70927418075371"><!-- svg-source:excalidraw --><metadata></metadata><defs><style class="style-fonts">
      </style></defs><g stroke-linecap="round"><g transform="translate(21.998207012805324 10) rotate(0 6.153736138375734 6.227877537633503)"><path d="M0 0 C2.05 2.08, 10.26 10.38, 12.31 12.46 M0 0 C2.05 2.08, 10.26 10.38, 12.31 12.46" stroke="#ffffff" stroke-width="4" fill="none"></path></g></g><mask></mask><g stroke-linecap="round"><g transform="translate(34.60224488658332 23.04888626932552) rotate(0 -12.30112244329166 12.330193892639727)"><path d="M0 0 C-4.1 4.11, -20.5 20.55, -24.6 24.66 M0 0 C-4.1 4.11, -20.5 20.55, -24.6 24.66" stroke="#ffffff" stroke-width="4" fill="none"></path></g></g><mask></mask><g stroke-linecap="round"><g transform="translate(34.299330001696035 10.000000126148734) rotate(0 6.153736138375734 6.227877537633503)"><path d="M0 0 C2.05 2.08, 10.26 10.38, 12.31 12.46 M0 0 C2.05 2.08, 10.26 10.38, 12.31 12.46" stroke="#ffffff" stroke-width="4" fill="none"></path></g></g><mask></mask><g stroke-linecap="round"><g transform="translate(46.90336787547767 23.048886395474256) rotate(0 -12.30112244329166 12.330193892639727)"><path d="M0 0 C-4.1 4.11, -20.5 20.55, -24.6 24.66 M0 0 C-4.1 4.11, -20.5 20.55, -24.6 24.66" stroke="#ffffff" stroke-width="4" fill="none"></path></g></g><mask></mask></svg>