<?xml version="1.0" standalone="no"?>
<!DOCTYPE svg PUBLIC "-//W3C//DTD SVG 1.1//EN" "http://www.w3.org/Graphics/SVG/1.1/DTD/svg11.dtd">
<svg version="1.1" xmlns="http://www.w3.org/2000/svg" viewBox="0 0 45.80540445949373 32.94413006538434" width="45.80540445949373" height="32.94413006538434"><!-- svg-source:excalidraw --><metadata></metadata><defs><style class="style-fonts">
      </style></defs><g stroke-linecap="round"><g transform="translate(22.28858542612943 10) rotate(0 6.626939732806477 0.07796399685639699)"><path d="M0 0 C2.21 0.03, 11.04 0.13, 13.25 0.16 M0 0 C2.21 0.03, 11.04 0.13, 13.25 0.16" stroke="#9c36b5" stroke-width="4" fill="none"></path></g></g><mask></mask><g stroke-linecap="round"><g transform="translate(24.281712787225842 11.420438393117365) rotate(0 5.7618458361339435 5.761845836133489)"><path d="M0 0 C1.92 1.92, 9.6 9.6, 11.52 11.52 M0 0 C1.92 1.92, 9.6 9.6, 11.52 11.52" stroke="#9c36b5" stroke-width="4" fill="none"></path></g></g><mask></mask><g stroke-linecap="round"><g transform="translate(10 22.37040717128184) rotate(0 6.016206495332881 -6.016206495332881)"><path d="M0 0 C2.01 -2.01, 10.03 -10.03, 12.03 -12.03 M0 0 C2.01 -2.01, 10.03 -10.03, 12.03 -12.03" stroke="#9c36b5" stroke-width="4" fill="none"></path></g></g><mask></mask></svg>