<?xml version="1.0" standalone="no"?>
<!DOCTYPE svg PUBLIC "-//W3C//DTD SVG 1.1//EN" "http://www.w3.org/Graphics/SVG/1.1/DTD/svg11.dtd">
<svg version="1.1" xmlns="http://www.w3.org/2000/svg" viewBox="0 0 69.23552070322512 70.36802573043406" width="69.23552070322512" height="70.36802573043406"><!-- svg-source:excalidraw --><metadata></metadata><defs><style class="style-fonts">
      </style></defs><g stroke-linecap="round"><g transform="translate(22.105001354599153 22.628174832686454) rotate(0 6.313939239782485 6.313939239782485)"><path d="M0 0 C2.1 2.1, 10.52 10.52, 12.63 12.63 M0 0 C2.1 2.1, 10.52 10.52, 12.63 12.63" stroke="#ffffff" stroke-width="4" fill="none"></path></g></g><mask></mask><g stroke-linecap="round"><g transform="translate(34.79370285037476 35.5743228800593) rotate(0 -12.396851425187378 12.396851425187378)"><path d="M0 0 C-4.13 4.13, -20.66 20.66, -24.79 24.79 M0 0 C-4.13 4.13, -20.66 20.66, -24.79 24.79" stroke="#ffffff" stroke-width="4" fill="none"></path></g></g><mask></mask><g stroke-linecap="round"><g transform="translate(59.23552070322512 46.39737662407242) rotate(0 -12.483710971562687 -12.100523725290714)"><path d="M0 0 C-4.16 -4.03, -20.81 -20.17, -24.97 -24.2 M0 0 C-4.16 -4.03, -20.81 -20.17, -24.97 -24.2" stroke="#ffffff" stroke-width="4" fill="none"></path></g></g><mask></mask><g stroke-linecap="round"><g transform="translate(34.222872640923015 21.61936519921983) rotate(0 0 -5.809682599609914)"><path d="M0 0 C0 -1.94, 0 -9.68, 0 -11.62 M0 0 C0 -1.94, 0 -9.68, 0 -11.62" stroke="#ffffff" stroke-width="4" fill="none"></path></g></g><mask></mask></svg>