<?xml version="1.0" standalone="no"?>
<!DOCTYPE svg PUBLIC "-//W3C//DTD SVG 1.1//EN" "http://www.w3.org/Graphics/SVG/1.1/DTD/svg11.dtd">
<svg version="1.1" xmlns="http://www.w3.org/2000/svg" viewBox="0 0 33.69243892707982 32.944130065382524" width="33.69243892707982" height="32.944130065382524"><!-- svg-source:excalidraw --><metadata></metadata><defs><style class="style-fonts">
      </style></defs><g stroke-linecap="round"><g transform="translate(10.063185863404215 10) rotate(0 6.626939732806477 0.07796399685639699)"><path d="M0 0 C2.21 0.03, 11.04 0.13, 13.25 0.16 M0 0 C2.21 0.03, 11.04 0.13, 13.25 0.16" stroke="#9c36b5" stroke-width="4" fill="none"></path></g></g><mask></mask><g stroke-linecap="round"><g transform="translate(10.065292450601191 22.78820207166973) rotate(0 6.626939732806477 0.07796399685639699)"><path d="M0 0 C2.21 0.03, 11.04 0.13, 13.25 0.16 M0 0 C2.21 0.03, 11.04 0.13, 13.25 0.16" stroke="#9c36b5" stroke-width="4" fill="none"></path></g></g><mask></mask><g stroke-linecap="round"><g transform="translate(10.061900893081656 22.408702111622915) rotate(0 -0.030950446540828125 -6.035353965503418)"><path d="M0 0 C-0.01 -2.01, -0.05 -10.06, -0.06 -12.07 M0 0 C-0.01 -2.01, -0.05 -10.06, -0.06 -12.07" stroke="#9c36b5" stroke-width="4" fill="none"></path></g></g><mask></mask><g stroke-linecap="round"><g transform="translate(23.69243892707982 22.687391855997703) rotate(0 -0.030950446540828125 -6.035353965503418)"><path d="M0 0 C-0.01 -2.01, -0.05 -10.06, -0.06 -12.07 M0 0 C-0.01 -2.01, -0.05 -10.06, -0.06 -12.07" stroke="#9c36b5" stroke-width="4" fill="none"></path></g></g><mask></mask></svg>