<?xml version="1.0" standalone="no"?>
<!DOCTYPE svg PUBLIC "-//W3C//DTD SVG 1.1//EN" "http://www.w3.org/Graphics/SVG/1.1/DTD/svg11.dtd">
<svg version="1.1" xmlns="http://www.w3.org/2000/svg" viewBox="0 0 32.413386096474824 44.41528697188551" width="32.413386096474824" height="44.41528697188551"><!-- svg-source:excalidraw --><metadata></metadata><defs><style class="style-fonts">
      </style></defs><g stroke-linecap="round"><g transform="translate(34.3606502317034 22.120495631179438) rotate(270.00000000000006 -12.10002711854986 0.14235326021798755)"><path d="M0 0 C-4.03 0.05, -20.17 0.24, -24.2 0.28 M0 0 C-4.03 0.05, -20.17 0.24, -24.2 0.28" stroke="#9c36b5" stroke-width="4" fill="none"></path></g></g><mask></mask><g stroke-linecap="round"><g transform="translate(22.541943604104745 22.243819767529203) rotate(270.00000000000006 -6.150012355993567 6.021454848363192)"><path d="M0 0 C-2.05 2.01, -10.25 10.04, -12.3 12.04 M0 0 C-2.05 2.01, -10.25 10.04, -12.3 12.04" stroke="#9c36b5" stroke-width="4" fill="none"></path></g></g><mask></mask><g stroke-linecap="round"><g transform="translate(21.711019221591414 21.711019221591414) rotate(270.00000000000006 -5.9197883646106675 -5.791230856980292)"><path d="M0 0 C-1.97 -1.93, -9.87 -9.65, -11.84 -11.58 M0 0 C-1.97 -1.93, -9.87 -9.65, -11.84 -11.58" stroke="#9c36b5" stroke-width="4" fill="none"></path></g></g><mask></mask></svg>