<?xml version="1.0" standalone="no"?>
<!DOCTYPE svg PUBLIC "-//W3C//DTD SVG 1.1//EN" "http://www.w3.org/Graphics/SVG/1.1/DTD/svg11.dtd">
<svg version="1.1" xmlns="http://www.w3.org/2000/svg" viewBox="0 0 45.64039379346286 33.07231077088545" width="45.64039379346286" height="33.07231077088545"><!-- svg-source:excalidraw --><metadata></metadata><defs><style class="style-fonts">
      </style></defs><g stroke-linecap="round"><g transform="translate(10.060201041680557 23.02412522538725) rotate(0 6.422068830610897 0.0075025732417088875)"><path d="M0 0 C2.14 0, 10.7 0.01, 12.84 0.02 M0 0 C2.14 0, 10.7 0.01, 12.84 0.02" stroke="#9c36b5" stroke-width="4" fill="none"></path></g></g><mask></mask><g stroke-linecap="round"><g transform="translate(10 22.6397747750525) rotate(0 6.2549760269021135 -6.258055905077981)"><path d="M0 0 C2.08 -2.09, 10.42 -10.43, 12.51 -12.52 M0 0 C2.08 -2.09, 10.42 -10.43, 12.51 -12.52" stroke="#9c36b5" stroke-width="4" fill="none"></path></g></g><mask></mask><g stroke-linecap="round"><g transform="translate(22.763075733226287 10.093381440696248) rotate(0 6.285076547742392 -0.04669072034812416)"><path d="M0 0 C2.1 -0.02, 10.48 -0.08, 12.57 -0.09 M0 0 C2.1 -0.02, 10.48 -0.08, 12.57 -0.09" stroke="#9c36b5" stroke-width="4" fill="none"></path></g></g><mask></mask><g stroke-linecap="round"><g transform="translate(35.64039379346286 10.735611277141288) rotate(0 -6.201530145888228 6.168349746872082)"><path d="M0 0 C-2.07 2.06, -10.34 10.28, -12.4 12.34 M0 0 C-2.07 2.06, -10.34 10.28, -12.4 12.34" stroke="#9c36b5" stroke-width="4" fill="none"></path></g></g><mask></mask></svg>