<?xml version="1.0" standalone="no"?>
<!DOCTYPE svg PUBLIC "-//W3C//DTD SVG 1.1//EN" "http://www.w3.org/Graphics/SVG/1.1/DTD/svg11.dtd">
<svg version="1.1" xmlns="http://www.w3.org/2000/svg" viewBox="0 0 58.06941796125557 56.553506894870225" width="58.06941796125557" height="56.553506894870225"><!-- svg-source:excalidraw --><metadata></metadata><defs><style class="style-fonts">
      </style></defs><g stroke-linecap="round"><g transform="translate(22.95874697637919 22.65670777845935) rotate(178.81881108667483 0 5.952260051664325)"><path d="M0 0 C0 1.98, 0 9.92, 0 11.9 M0 0 C0 1.98, 0 9.92, 0 11.9" stroke="#ffffff" stroke-width="4" fill="none"></path></g></g><mask></mask><g stroke-linecap="round"><g transform="translate(10.126576809268954 10.016784345504675) rotate(178.81881108667483 6.244262597625038 6.2046470273285195)"><path d="M0 0 C2.08 2.07, 10.41 10.34, 12.49 12.41 M0 0 C2.08 2.07, 10.41 10.34, 12.49 12.41" stroke="#ffffff" stroke-width="4" fill="none"></path></g></g><mask></mask><g stroke-linecap="round"><g transform="translate(23.23538053536504 34.56789881118948) rotate(178.81881108667483 6.094936751881505 6.056268551822541)"><path d="M0 0 C2.03 2.02, 10.16 10.09, 12.19 12.11 M0 0 C2.03 2.02, 10.16 10.09, 12.19 12.11" stroke="#ffffff" stroke-width="4" fill="none"></path></g></g><mask></mask><g stroke-linecap="round"><g transform="translate(47.44870371906745 34.61590354939926) rotate(178.81881108667483 -12.44158771689763 -12.437509762611171)"><path d="M0 0 C-4.15 -4.15, -20.74 -20.73, -24.88 -24.88 M0 0 C-4.15 -4.15, -20.74 -20.73, -24.88 -24.88" stroke="#ffffff" stroke-width="4" fill="none"></path></g></g><mask></mask><g stroke-linecap="round"><g transform="translate(47.94965614531975 45.87526178795724) rotate(178.81881108667483 0 -5.809682599609914)"><path d="M0 0 C0 -1.94, 0 -9.68, 0 -11.62 M0 0 C0 -1.94, 0 -9.68, 0 -11.62" stroke="#ffffff" stroke-width="4" fill="none"></path></g></g><mask></mask></svg>