<?xml version="1.0" standalone="no"?>
<!DOCTYPE svg PUBLIC "-//W3C//DTD SVG 1.1//EN" "http://www.w3.org/Graphics/SVG/1.1/DTD/svg11.dtd">
<svg version="1.1" xmlns="http://www.w3.org/2000/svg" viewBox="0 0 45.13017774694163 44.10608500706985" width="45.13017774694163" height="44.10608500706985"><!-- svg-source:excalidraw --><metadata></metadata><defs><style class="style-fonts">
      </style></defs><g stroke-linecap="round"><g transform="translate(22.359386225383787 10.024356945843465) rotate(359.7736523405482 -6.177746142798242 6.18336286896465)"><path d="M0 0 C-2.06 2.06, -10.3 10.31, -12.36 12.37 M0 0 C-2.06 2.06, -10.3 10.31, -12.36 12.37" stroke="#9c36b5" stroke-width="4" fill="none"></path></g></g><mask></mask><g stroke-linecap="round"><g transform="translate(10.02268586073933 22.519934223683777) rotate(359.7736523405482 6.246596057822444 5.754865245012752)"><path d="M0 0 C2.08 1.92, 10.41 9.59, 12.49 11.51 M0 0 C2.08 1.92, 10.41 9.59, 12.49 11.51" stroke="#9c36b5" stroke-width="4" fill="none"></path></g></g><mask></mask><g stroke-linecap="round"><g transform="translate(22.749335953599257 34.08162964377425) rotate(359.7736523405482 6.190648851702008 -0.10317748086163192)"><path d="M0 0 C2.06 -0.03, 10.32 -0.17, 12.38 -0.21 M0 0 C2.06 -0.03, 10.32 -0.17, 12.38 -0.21" stroke="#9c36b5" stroke-width="4" fill="none"></path></g></g><mask></mask></svg>