<?xml version="1.0" standalone="no"?>
<!DOCTYPE svg PUBLIC "-//W3C//DTD SVG 1.1//EN" "http://www.w3.org/Graphics/SVG/1.1/DTD/svg11.dtd">
<svg version="1.1" xmlns="http://www.w3.org/2000/svg" viewBox="0 0 44.71079797058519 43.52970354305853" width="44.71079797058519" height="43.52970354305853"><!-- svg-source:excalidraw --><metadata></metadata><defs><style class="style-fonts">
      </style></defs><g stroke-linecap="round"><g transform="translate(34.71079797058519 33.52970354305853) rotate(360 -5.709794414328826 -5.709794414328371)"><path d="M0 0 C-1.9 -1.9, -9.52 -9.52, -11.42 -11.42 M0 0 C-1.9 -1.9, -9.52 -9.52, -11.42 -11.42" stroke="#9c36b5" stroke-width="4" fill="none"></path></g></g><mask></mask><g stroke-linecap="round"><g transform="translate(22.930955348155294 20.588484510921262) rotate(360 0 -5.294242255460631)"><path d="M0 0 C0 -1.76, 0 -8.82, 0 -10.59 M0 0 C0 -1.76, 0 -8.82, 0 -10.59" stroke="#9c36b5" stroke-width="4" fill="none"></path></g></g><mask></mask><g stroke-linecap="round"><g transform="translate(22.890224046500407 21.596508865191026) rotate(360 -6.4451120232502035 0)"><path d="M0 0 C-2.15 0, -10.74 0, -12.89 0 M0 0 C-2.15 0, -10.74 0, -12.89 0" stroke="#9c36b5" stroke-width="4" fill="none"></path></g></g><mask></mask></svg>