<?xml version="1.0" standalone="no"?>
<!DOCTYPE svg PUBLIC "-//W3C//DTD SVG 1.1//EN" "http://www.w3.org/Graphics/SVG/1.1/DTD/svg11.dtd">
<svg version="1.1" xmlns="http://www.w3.org/2000/svg" viewBox="0 0 57.400419091358344 55.98672610121321" width="57.400419091358344" height="55.98672610121321"><!-- svg-source:excalidraw --><metadata></metadata><defs><style class="style-fonts">
      </style></defs><g stroke-linecap="round"><g transform="translate(47.291396553271625 45.98565820121166) rotate(718.8782627351277 0.10902253808626483 -5.567910939708327)"><path d="M0 0 C0.01 -0.7, 0.05 -2.33, 0.08 -4.19 C0.12 -6.05, 0.2 -9.98, 0.22 -11.14 M0 0 C0.01 -0.7, 0.05 -2.33, 0.08 -4.19 C0.12 -6.05, 0.2 -9.98, 0.22 -11.14" stroke="#ffffff" stroke-width="4" fill="none"></path></g></g><mask></mask><g stroke-linecap="round"><g transform="translate(46.878188297647284 34.8940486014244) rotate(718.8782627351277 -12.083843188781884 -12.566509679595583)"><path d="M0 0 C-4.03 -4.19, -20.14 -20.94, -24.17 -25.13 M0 0 C-4.03 -4.19, -20.14 -20.94, -24.17 -25.13" stroke="#ffffff" stroke-width="4" fill="none"></path></g></g><mask></mask><g stroke-linecap="round"><g transform="translate(34.82459036623459 45.98565884502841) rotate(718.8782627351277 0.10902253808626483 -5.567910939708327)"><path d="M0 0 C0.01 -0.7, 0.05 -2.33, 0.08 -4.19 C0.12 -6.05, 0.2 -9.98, 0.22 -11.14 M0 0 C0.01 -0.7, 0.05 -2.33, 0.08 -4.19 C0.12 -6.05, 0.2 -9.98, 0.22 -11.14" stroke="#ffffff" stroke-width="4" fill="none"></path></g></g><mask></mask><g stroke-linecap="round"><g transform="translate(34.41138211061116 34.89404924523842) rotate(718.8782627351277 -12.083843188781884 -12.566509679595583)"><path d="M0 0 C-4.03 -4.19, -20.14 -20.94, -24.17 -25.13 M0 0 C-4.03 -4.19, -20.14 -20.94, -24.17 -25.13" stroke="#ffffff" stroke-width="4" fill="none"></path></g></g><mask></mask></svg>