<?xml version="1.0" standalone="no"?>
<!DOCTYPE svg PUBLIC "-//W3C//DTD SVG 1.1//EN" "http://www.w3.org/Graphics/SVG/1.1/DTD/svg11.dtd">
<svg version="1.1" xmlns="http://www.w3.org/2000/svg" viewBox="0 0 45.042880105913355 69.2336691672408" width="45.042880105913355" height="69.2336691672408"><!-- svg-source:excalidraw --><metadata></metadata><defs><style class="style-fonts">
      </style></defs><g stroke-linecap="round"><g transform="translate(22.70685635562495 22.202555725063576) rotate(358.222684015558 -6.257868583196796 5.881193849916372)"><path d="M0 0 C-2.09 1.96, -10.43 9.8, -12.52 11.76 M0 0 C-2.09 1.96, -10.43 9.8, -12.52 11.76" stroke="#ffffff" stroke-width="4" fill="none"></path></g></g><mask></mask><g stroke-linecap="round"><g transform="translate(10.385602349485453 34.37414417202672) rotate(358.222684015558 -0.3856023494854526 12.426771910056459)"><path d="M0 0 C-0.13 4.14, -0.64 20.71, -0.77 24.85 M0 0 C-0.13 4.14, -0.64 20.71, -0.77 24.85" stroke="#ffffff" stroke-width="4" fill="none"></path></g></g><mask></mask><g stroke-linecap="round"><g transform="translate(34.85176091667836 35.26872574234494) rotate(538.222684015558 -6.257868583196796 5.881193849916372)"><path d="M0 0 C-2.09 1.96, -10.43 9.8, -12.52 11.76 M0 0 C-2.09 1.96, -10.43 9.8, -12.52 11.76" stroke="#ffffff" stroke-width="4" fill="none"></path></g></g><mask></mask><g stroke-linecap="round"><g transform="translate(35.42848245539881 10.005981175100715) rotate(538.222684015558 -0.3856023494854526 12.426771910056459)"><path d="M0 0 C-0.13 4.14, -0.64 20.71, -0.77 24.85 M0 0 C-0.13 4.14, -0.64 20.71, -0.77 24.85" stroke="#ffffff" stroke-width="4" fill="none"></path></g></g><mask></mask></svg>