<?xml version="1.0" standalone="no"?>
<!DOCTYPE svg PUBLIC "-//W3C//DTD SVG 1.1//EN" "http://www.w3.org/Graphics/SVG/1.1/DTD/svg11.dtd">
<svg version="1.1" xmlns="http://www.w3.org/2000/svg" viewBox="0 0 44.09338544924776 56.476382647666014" width="44.09338544924776" height="56.476382647666014"><!-- svg-source:excalidraw --><metadata></metadata><defs><style class="style-fonts">
      </style></defs><g stroke-linecap="round"><g transform="translate(34.09338544924776 46.476382647666014) rotate(0 -0.024777911859473534 -5.926081313814848)" fill-rule="evenodd"><path d="M0 0 C-0.01 -1.98, -0.05 -10.89, -0.05 -11.85 C-0.05 -12.82, -0.01 -6.81, 0 -5.8" stroke="none" stroke-width="0" fill="#b2f2bb" fill-rule="evenodd"></path><path d="M0 0 C-0.01 -1.98, -0.05 -10.89, -0.05 -11.85 C-0.05 -12.82, -0.01 -6.81, 0 -5.8 M0 0 C-0.01 -1.98, -0.05 -10.89, -0.05 -11.85 C-0.05 -12.82, -0.01 -6.81, 0 -5.8" stroke="#9c36b5" stroke-width="4" fill="none"></path></g></g><mask></mask><g stroke-linecap="round"><g transform="translate(33.99458977195809 34.52210956943554) rotate(0 -11.997294885979045 -12.261054784717771)"><path d="M0 0 C-4 -4.09, -20 -20.44, -23.99 -24.52 M0 0 C-4 -4.09, -20 -20.44, -23.99 -24.52" stroke="#9c36b5" stroke-width="4" fill="none"></path></g></g><mask></mask></svg>