<?xml version="1.0" standalone="no"?>
<!DOCTYPE svg PUBLIC "-//W3C//DTD SVG 1.1//EN" "http://www.w3.org/Graphics/SVG/1.1/DTD/svg11.dtd">
<svg version="1.1" xmlns="http://www.w3.org/2000/svg" viewBox="0 0 56.71770821638802 79.73345569091362" width="56.71770821638802" height="79.73345569091362"><!-- svg-source:excalidraw --><metadata></metadata><defs><style class="style-fonts">
      </style></defs><g stroke-linecap="round"><g transform="translate(22.063290647911344 10.202477854949393) rotate(358.055788004559 -6.06667567777049 5.806399401433964)"><path d="M0 0 C-2.02 1.94, -10.11 9.68, -12.13 11.61 M0 0 C-2.02 1.94, -10.11 9.68, -12.13 11.61" stroke="#ffffff" stroke-width="4" fill="none"></path></g></g><mask></mask><g stroke-linecap="round"><g transform="translate(10.41517883483175 22.14347297247059) rotate(358.055788004559 -0.1756392415022674 12.234656751297507)"><path d="M0 0 C-0.06 4.08, -0.29 20.39, -0.35 24.47 M0 0 C-0.06 4.08, -0.29 20.39, -0.35 24.47" stroke="#ffffff" stroke-width="4" fill="none"></path></g></g><mask></mask><g stroke-linecap="round"><g transform="translate(22.96507758939424 46.182555995931125) rotate(178.87826273512763 0 -6.049970873111533)" fill-rule="evenodd"><path d="M0 0 C0 -2.02, 0 -11.13, 0 -12.1 C0 -13.07, 0 -6.85, 0 -5.8" stroke="none" stroke-width="0" fill="#b2f2bb" fill-rule="evenodd"></path><path d="M0 0 C0 -2.02, 0 -11.13, 0 -12.1 C0 -13.07, 0 -6.85, 0 -5.8 M0 0 C0 -2.02, 0 -11.13, 0 -12.1 C0 -13.07, 0 -6.85, 0 -5.8" stroke="#ffffff" stroke-width="4" fill="none"></path></g></g><mask></mask><g stroke-linecap="round"><g transform="translate(46.48247614509273 69.96158623094016) rotate(178.87826273512763 -11.534399122500417 -12.128798852295176)"><path d="M0 0 C-3.84 -4.04, -19.22 -20.21, -23.07 -24.26 M0 0 C-3.84 -4.04, -19.22 -20.21, -23.07 -24.26" stroke="#ffffff" stroke-width="4" fill="none"></path></g></g><mask></mask></svg>