<?xml version="1.0" standalone="no"?>
<!DOCTYPE svg PUBLIC "-//W3C//DTD SVG 1.1//EN" "http://www.w3.org/Graphics/SVG/1.1/DTD/svg11.dtd">
<svg version="1.1" xmlns="http://www.w3.org/2000/svg" viewBox="0 0 44.36426999523428 55.486520541844584" width="44.36426999523428" height="55.486520541844584"><!-- svg-source:excalidraw --><metadata></metadata><defs><style class="style-fonts">
      </style></defs><g stroke-linecap="round"><g transform="translate(34.25675491504717 33.6395362104613) rotate(179.04515874612662 -6.082973236104408 5.873215538307477)"><path d="M0 0 C-2.03 1.96, -10.14 9.79, -12.17 11.75 M0 0 C-2.03 1.96, -10.14 9.79, -12.17 11.75" stroke="#ffffff" stroke-width="4" fill="none"></path></g></g><mask></mask><g stroke-linecap="round"><g transform="translate(22.143413207071717 21.537269812207796) rotate(179.04515874612662 6.061313100060033 5.945161249208695)"><path d="M0 0 C2.02 1.98, 10.1 9.91, 12.12 11.89 M0 0 C2.02 1.98, 10.1 9.91, 12.12 11.89" stroke="#ffffff" stroke-width="4" fill="none"></path></g></g><mask></mask><g stroke-linecap="round"><g transform="translate(34.07104625777265 10.148134968476825) rotate(179.04515874612662 -6.182658517957407 5.635718269559447)"><path d="M0 0 C-2.06 1.88, -10.3 9.39, -12.37 11.27 M0 0 C-2.06 1.88, -10.3 9.39, -12.37 11.27" stroke="#ffffff" stroke-width="4" fill="none"></path></g></g><mask></mask><g stroke-linecap="round"><g transform="translate(21.77964496702134 10.18080822644015) rotate(358.222684015558 -5.9191982181891944 5.770221457324624)"><path d="M0 0 C-1.97 1.92, -9.87 9.62, -11.84 11.54 M0 0 C-1.97 1.92, -9.87 9.62, -11.84 11.54" stroke="#ffffff" stroke-width="4" fill="none"></path></g></g><mask></mask><g stroke-linecap="round"><g transform="translate(10.357108681037062 22.020596522181677) rotate(358.222684015558 -0.1652574744693993 11.511484896130924)"><path d="M0 0 C-0.06 3.84, -0.28 19.19, -0.33 23.02 M0 0 C-0.06 3.84, -0.28 19.19, -0.33 23.02" stroke="#ffffff" stroke-width="4" fill="none"></path></g></g><mask></mask></svg>