<?xml version="1.0" standalone="no"?>
<!DOCTYPE svg PUBLIC "-//W3C//DTD SVG 1.1//EN" "http://www.w3.org/Graphics/SVG/1.1/DTD/svg11.dtd">
<svg version="1.1" xmlns="http://www.w3.org/2000/svg" viewBox="0 0 32.838054812653354 44.38653540741325" width="32.838054812653354" height="44.38653540741325"><!-- svg-source:excalidraw --><metadata></metadata><defs><style class="style-fonts">
      </style></defs><g stroke-linecap="round"><g transform="translate(10.171192083542337 10) rotate(0 -0.08559604177116853 5.842225370709002)"><path d="M0 0 C-0.03 1.95, -0.14 9.74, -0.17 11.68 M0 0 C-0.03 1.95, -0.14 9.74, -0.17 11.68" stroke="#9c36b5" stroke-width="4" fill="none"></path></g></g><mask></mask><g stroke-linecap="round"><g transform="translate(10.261452876464318 21.47721120379174) rotate(0 6.043960373091068 -5.734713104199045)"><path d="M0 0 C2.01 -1.91, 10.07 -9.56, 12.09 -11.47 M0 0 C2.01 -1.91, 10.07 -9.56, 12.09 -11.47" stroke="#9c36b5" stroke-width="4" fill="none"></path></g></g><mask></mask><g stroke-linecap="round"><g transform="translate(10.154936416533019 22.103460718924907) rotate(0 6.3415591980601675 6.1415373442441705)"><path d="M0 0 C2.11 2.05, 10.57 10.24, 12.68 12.28 M0 0 C2.11 2.05, 10.57 10.24, 12.68 12.28" stroke="#9c36b5" stroke-width="4" fill="none"></path></g></g><mask></mask></svg>