<?xml version="1.0" standalone="no"?>
<!DOCTYPE svg PUBLIC "-//W3C//DTD SVG 1.1//EN" "http://www.w3.org/Graphics/SVG/1.1/DTD/svg11.dtd">
<svg version="1.1" xmlns="http://www.w3.org/2000/svg" viewBox="0 0 45.462753573178816 69.77868541483258" width="45.462753573178816" height="69.77868541483258"><!-- svg-source:excalidraw --><metadata></metadata><defs><style class="style-fonts">
      </style></defs><g stroke-linecap="round"><g transform="translate(22.864018365022275 21.372647986615448) rotate(0 -6.003208570345123 6.110408723386627)"><path d="M0 0 C-2 2.04, -10.01 10.18, -12.01 12.22 M0 0 C-2 2.04, -10.01 10.18, -12.01 12.22" stroke="#ffffff" stroke-width="4" fill="none"></path></g></g><mask></mask><g stroke-linecap="round"><g transform="translate(10.214400306083917 34.23666635163772) rotate(0 -0.1072001530419584 12.771009531597429)"><path d="M0 0 C-0.04 4.26, -0.18 21.29, -0.21 25.54 M0 0 C-0.04 4.26, -0.18 21.29, -0.21 25.54" stroke="#ffffff" stroke-width="4" fill="none"></path></g></g><mask></mask><g stroke-linecap="round"><g transform="translate(23.24120729594779 46.52165326991508) rotate(0 -0.06357667743304773 -5.945986522548992)"><path d="M0 0 C-0.02 -1.98, -0.11 -9.91, -0.13 -11.89 M0 0 C-0.02 -1.98, -0.11 -9.91, -0.13 -11.89" stroke="#ffffff" stroke-width="4" fill="none"></path></g></g><mask></mask><g stroke-linecap="round"><g transform="translate(23.23672359345528 33.92752160886721) rotate(0 5.897969957402893 -5.736381739392073)"><path d="M0 0 C1.97 -1.91, 9.83 -9.56, 11.8 -11.47 M0 0 C1.97 -1.91, 9.83 -9.56, 11.8 -11.47" stroke="#ffffff" stroke-width="4" fill="none"></path></g></g><mask></mask><g stroke-linecap="round"><g transform="translate(35.462753573178816 21.86795094585159) rotate(0 0 -5.933975472925795)"><path d="M0 0 C0 -1.98, 0 -9.89, 0 -11.87 M0 0 C0 -1.98, 0 -9.89, 0 -11.87" stroke="#ffffff" stroke-width="4" fill="none"></path></g></g><mask></mask></svg>