<?xml version="1.0" standalone="no"?>
<!DOCTYPE svg PUBLIC "-//W3C//DTD SVG 1.1//EN" "http://www.w3.org/Graphics/SVG/1.1/DTD/svg11.dtd">
<svg version="1.1" xmlns="http://www.w3.org/2000/svg" viewBox="0 0 44.79288113048369 56.92561506720176" width="44.79288113048369" height="56.92561506720176"><!-- svg-source:excalidraw --><metadata></metadata><defs><style class="style-fonts">
      </style></defs><g stroke-linecap="round"><g transform="translate(22.575411422835714 22.247999534695737) rotate(0 0 5.952260051664325)"><path d="M0 0 C0 1.98, 0 9.92, 0 11.9 M0 0 C0 1.98, 0 9.92, 0 11.9" stroke="#9c36b5" stroke-width="4" fill="none"></path></g></g><mask></mask><g stroke-linecap="round"><g transform="translate(22.488525195250077 34.51632101254472) rotate(0 -6.244262597625038 6.2046470273285195)"><path d="M0 0 C-2.08 2.07, -10.41 10.34, -12.49 12.41 M0 0 C-2.08 2.07, -10.41 10.34, -12.49 12.41" stroke="#9c36b5" stroke-width="4" fill="none"></path></g></g><mask></mask><g stroke-linecap="round"><g transform="translate(34.79288113048369 10) rotate(0 -6.094936751881505 6.056268551822541)"><path d="M0 0 C-2.03 2.02, -10.16 10.09, -12.19 12.11 M0 0 C-2.03 2.02, -10.16 10.09, -12.19 12.11" stroke="#9c36b5" stroke-width="4" fill="none"></path></g></g><mask></mask></svg>