<?xml version="1.0" standalone="no"?>
<!DOCTYPE svg PUBLIC "-//W3C//DTD SVG 1.1//EN" "http://www.w3.org/Graphics/SVG/1.1/DTD/svg11.dtd">
<svg version="1.1" xmlns="http://www.w3.org/2000/svg" viewBox="0 0 57.043752355467404 57.56526716165172" width="57.043752355467404" height="57.56526716165172"><!-- svg-source:excalidraw --><metadata></metadata><defs><style class="style-fonts">
      </style></defs><g stroke-linecap="round"><g transform="translate(22.181519715642025 47.56526716165172) rotate(0 12.43111631991269 -12.472589761813424)"><path d="M0 0 C4.14 -4.16, 20.72 -20.79, 24.86 -24.95 M0 0 C4.14 -4.16, 20.72 -20.79, 24.86 -24.95" stroke="#ffffff" stroke-width="4" fill="none"></path></g></g><mask></mask><g stroke-linecap="round"><g transform="translate(46.93609570929675 21.903131591803685) rotate(0 -6.143275717061897 -5.810016071390237)"><path d="M0 0 C-2.05 -1.94, -10.24 -9.68, -12.29 -11.62 M0 0 C-2.05 -1.94, -10.24 -9.68, -12.29 -11.62" stroke="#ffffff" stroke-width="4" fill="none"></path></g></g><mask></mask><g stroke-linecap="round"><g transform="translate(22.70685635562677 10.191258714939977) rotate(718.2226840155579 -6.257868583196796 5.881193849916372)"><path d="M0 0 C-2.09 1.96, -10.43 9.8, -12.52 11.76 M0 0 C-2.09 1.96, -10.43 9.8, -12.52 11.76" stroke="#ffffff" stroke-width="4" fill="none"></path></g></g><mask></mask><g stroke-linecap="round"><g transform="translate(10.385602349485453 22.362847161904938) rotate(718.2226840155579 -0.3856023494854526 12.426771910056459)"><path d="M0 0 C-0.13 4.14, -0.64 20.71, -0.77 24.85 M0 0 C-0.13 4.14, -0.64 20.71, -0.77 24.85" stroke="#ffffff" stroke-width="4" fill="none"></path></g></g><mask></mask></svg>