<?xml version="1.0" standalone="no"?>
<!DOCTYPE svg PUBLIC "-//W3C//DTD SVG 1.1//EN" "http://www.w3.org/Graphics/SVG/1.1/DTD/svg11.dtd">
<svg version="1.1" xmlns="http://www.w3.org/2000/svg" viewBox="0 0 57.8123639207879 56.25085322596624" width="57.8123639207879" height="56.25085322596624"><!-- svg-source:excalidraw --><metadata></metadata><defs><style class="style-fonts">
      </style></defs><g stroke-linecap="round"><g transform="translate(22.78600912969614 22.343130064300567) rotate(178.81881108667483 0 5.872917458889788)"><path d="M0 0 C0 1.96, 0 9.79, 0 11.75 M0 0 C0 1.96, 0 9.79, 0 11.75" stroke="#ffffff" stroke-width="4" fill="none"></path></g></g><mask></mask><g stroke-linecap="round"><g transform="translate(10.124889562382123 9.871694615563683) rotate(178.81881108667483 6.161027661623848 6.121940159999667)"><path d="M0 0 C2.05 2.04, 10.27 10.2, 12.32 12.24 M0 0 C2.05 2.04, 10.27 10.2, 12.32 12.24" stroke="#ffffff" stroke-width="4" fill="none"></path></g></g><mask></mask><g stroke-linecap="round"><g transform="translate(23.058955211384273 34.095546989150535) rotate(178.81881108667483 6.013692303471089 5.975539543803734)"><path d="M0 0 C2 1.99, 10.02 9.96, 12.03 11.95 M0 0 C2 1.99, 10.02 9.96, 12.03 11.95" stroke="#ffffff" stroke-width="4" fill="none"></path></g></g><mask></mask><g stroke-linecap="round"><g transform="translate(35.39013028977479 22.67259429167916) rotate(178.81881108667483 0 5.872917458889788)"><path d="M0 0 C0 1.96, 0 9.79, 0 11.75 M0 0 C0 1.96, 0 9.79, 0 11.75" stroke="#ffffff" stroke-width="4" fill="none"></path></g></g><mask></mask><g stroke-linecap="round"><g transform="translate(22.72901072246077 10.201158842942277) rotate(178.81881108667483 6.161027661623848 6.121940159999667)"><path d="M0 0 C2.05 2.04, 10.27 10.2, 12.32 12.24 M0 0 C2.05 2.04, 10.27 10.2, 12.32 12.24" stroke="#ffffff" stroke-width="4" fill="none"></path></g></g><mask></mask><g stroke-linecap="round"><g transform="translate(35.66307637145928 34.42501121652913) rotate(178.81881108667483 6.013692303471089 5.975539543803734)"><path d="M0 0 C2 1.99, 10.02 9.96, 12.03 11.95 M0 0 C2 1.99, 10.02 9.96, 12.03 11.95" stroke="#ffffff" stroke-width="4" fill="none"></path></g></g><mask></mask></svg>