<?xml version="1.0" standalone="no"?>
<!DOCTYPE svg PUBLIC "-//W3C//DTD SVG 1.1//EN" "http://www.w3.org/Graphics/SVG/1.1/DTD/svg11.dtd">
<svg version="1.1" xmlns="http://www.w3.org/2000/svg" viewBox="0 0 44.36456656240898 56.82627022561155" width="44.36456656240898" height="56.82627022561155"><!-- svg-source:excalidraw --><metadata></metadata><defs><style class="style-fonts">
      </style></defs><g stroke-linecap="round"><g transform="translate(10 46.27190985348261) rotate(0 0 -5.581430270367491)"><path d="M0 0 C0 -1.86, 0 -9.3, 0 -11.16 M0 0 C0 -1.86, 0 -9.3, 0 -11.16" stroke="#ffffff" stroke-width="4" fill="none"></path></g></g><mask></mask><g stroke-linecap="round"><g transform="translate(10.177619493504608 34.73445750027804) rotate(0 6.081679286698545 -6.025286959028108)"><path d="M0 0 C2.03 -2.01, 10.14 -10.04, 12.16 -12.05 M0 0 C2.03 -2.01, 10.14 -10.04, 12.16 -12.05" stroke="#ffffff" stroke-width="4" fill="none"></path></g></g><mask></mask><g stroke-linecap="round"><g transform="translate(22.714915177086368 22.271467176894475) rotate(0 0 -5.8585536030468575)"><path d="M0 0 C0 -1.95, 0 -9.76, 0 -11.72 M0 0 C0 -1.95, 0 -9.76, 0 -11.72" stroke="#ffffff" stroke-width="4" fill="none"></path></g></g><mask></mask><g stroke-linecap="round"><g transform="translate(34.27892907806108 34.87262381083838) rotate(898.2226840155578 -6.257868583196796 5.881193849916144)"><path d="M0 0 C-2.09 1.96, -10.43 9.8, -12.52 11.76 M0 0 C-2.09 1.96, -10.43 9.8, -12.52 11.76" stroke="#ffffff" stroke-width="4" fill="none"></path></g></g><mask></mask><g stroke-linecap="round"><g transform="translate(34.73993695374338 10.005822464623634) rotate(898.2226840155578 -0.375370391335764 12.09702752367184)"><path d="M0 0 C-0.13 4.03, -0.63 20.16, -0.75 24.19 M0 0 C-0.13 4.03, -0.63 20.16, -0.75 24.19" stroke="#ffffff" stroke-width="4" fill="none"></path></g></g><mask></mask></svg>