<?xml version="1.0" standalone="no"?>
<!DOCTYPE svg PUBLIC "-//W3C//DTD SVG 1.1//EN" "http://www.w3.org/Graphics/SVG/1.1/DTD/svg11.dtd">
<svg version="1.1" xmlns="http://www.w3.org/2000/svg" viewBox="0 0 44.871164398215114 69.78392275530314" width="44.871164398215114" height="69.78392275530314"><!-- svg-source:excalidraw --><metadata></metadata><defs><style class="style-fonts">
      </style></defs><g stroke-linecap="round"><g transform="translate(34.22796347996791 36.190457321915346) rotate(180 -6.003208570345123 6.110408723386627)"><path d="M0 0 C-2 2.04, -10.01 10.18, -12.01 12.22 M0 0 C-2 2.04, -10.01 10.18, -12.01 12.22" stroke="#ffffff" stroke-width="4" fill="none"></path></g></g><mask></mask><g stroke-linecap="round"><g transform="translate(34.871164398215114 10.00000000000091) rotate(180 0 12.773628201834526)"><path d="M0 0 C0 4.26, 0 21.29, 0 25.55 M0 0 C0 4.26, 0 21.29, 0 25.55" stroke="#ffffff" stroke-width="4" fill="none"></path></g></g><mask></mask><g stroke-linecap="round"><g transform="translate(22.348699632095304 35.15424253048968) rotate(180 -0.06357667743304773 -5.945986522548992)"><path d="M0 0 C-0.02 -1.98, -0.11 -9.91, -0.13 -11.89 M0 0 C-0.02 -1.98, -0.11 -9.91, -0.13 -11.89" stroke="#ffffff" stroke-width="4" fill="none"></path></g></g><mask></mask><g stroke-linecap="round"><g transform="translate(10.43009006491502 47.3291646252228) rotate(180 5.897969957402893 -5.736381739392073)"><path d="M0 0 C1.97 -1.91, 9.83 -9.56, 11.8 -11.47 M0 0 C1.97 -1.91, 9.83 -9.56, 11.8 -11.47" stroke="#ffffff" stroke-width="4" fill="none"></path></g></g><mask></mask><g stroke-linecap="round"><g transform="translate(10 59.78392275530405) rotate(180 0 -5.933975472925795)"><path d="M0 0 C0 -1.98, 0 -9.89, 0 -11.87 M0 0 C0 -1.98, 0 -9.89, 0 -11.87" stroke="#ffffff" stroke-width="4" fill="none"></path></g></g><mask></mask></svg>