<?xml version="1.0" standalone="no"?>
<!DOCTYPE svg PUBLIC "-//W3C//DTD SVG 1.1//EN" "http://www.w3.org/Graphics/SVG/1.1/DTD/svg11.dtd">
<svg version="1.1" xmlns="http://www.w3.org/2000/svg" viewBox="0 0 33.185124620747956 45.19190562215772" width="33.185124620747956" height="45.19190562215772"><!-- svg-source:excalidraw --><metadata></metadata><defs><style class="style-fonts">
      </style></defs><g stroke-linecap="round"><g transform="translate(22.576203072889257 10) rotate(0 -6.288101536444174 5.961446911174789)"><path d="M0 0 C-2.1 1.99, -10.48 9.94, -12.58 11.92 M0 0 C-2.1 1.99, -10.48 9.94, -12.58 11.92" stroke="#9c36b5" stroke-width="4" fill="none"></path></g></g><mask></mask><g stroke-linecap="round"><g transform="translate(10 22.14252324105655) rotate(0 0 6.524691190550584)"><path d="M0 0 C0 2.17, 0 10.87, 0 13.05 M0 0 C0 2.17, 0 10.87, 0 13.05" stroke="#9c36b5" stroke-width="4" fill="none"></path></g></g><mask></mask><g stroke-linecap="round"><g transform="translate(10.172756308160388 21.75013751418919) rotate(0 6.506184156293784 6.689456949429314)"><path d="M0 0 C2.17 2.23, 10.84 11.15, 13.01 13.38 M0 0 C2.17 2.23, 10.84 11.15, 13.01 13.38" stroke="#9c36b5" stroke-width="4" fill="none"></path></g></g><mask></mask></svg>