<?xml version="1.0" standalone="no"?>
<!DOCTYPE svg PUBLIC "-//W3C//DTD SVG 1.1//EN" "http://www.w3.org/Graphics/SVG/1.1/DTD/svg11.dtd">
<svg version="1.1" xmlns="http://www.w3.org/2000/svg" viewBox="0 0 57.11014267929386 69.68361086323421" width="57.11014267929386" height="69.68361086323421"><!-- svg-source:excalidraw --><metadata></metadata><defs><style class="style-fonts">
      </style></defs><g stroke-linecap="round"><g transform="translate(22.110515076788943 10) rotate(0 6.197765351471844 6.07863294219942)"><path d="M0 0 C2.07 2.03, 10.33 10.13, 12.4 12.16 M0 0 C2.07 2.03, 10.33 10.13, 12.4 12.16" stroke="#ffffff" stroke-width="4" fill="none"></path></g></g><mask></mask><g stroke-linecap="round"><g transform="translate(47.11014267929386 47.53443886857167) rotate(0 -6.204890100671491 -5.9655617195494415)"><path d="M0 0 C-2.07 -1.99, -10.34 -9.94, -12.41 -11.93 M0 0 C-2.07 -1.99, -10.34 -9.94, -12.41 -11.93" stroke="#ffffff" stroke-width="4" fill="none"></path></g></g><mask></mask><g stroke-linecap="round"><g transform="translate(34.537216437725874 22.99584642181071) rotate(0 -0.08557663860665343 6.1198355414489924)"><path d="M0 0 C-0.03 2.04, -0.14 10.2, -0.17 12.24 M0 0 C-0.03 2.04, -0.14 10.2, -0.17 12.24" stroke="#ffffff" stroke-width="4" fill="none"></path></g></g><mask></mask><g stroke-linecap="round"><g transform="translate(10 59.68361086323421) rotate(0 6.055257466600779 -6.32006397988107)"><path d="M0 0 C2.02 -2.11, 10.09 -10.53, 12.11 -12.64 M0 0 C2.02 -2.11, 10.09 -10.53, 12.11 -12.64" stroke="#ffffff" stroke-width="4" fill="none"></path></g></g><mask></mask><g stroke-linecap="round"><g transform="translate(22.527324674632837 46.39521913207864) rotate(0 0 -11.458439880973401)"><path d="M0 0 C0 -3.82, 0 -19.1, 0 -22.92 M0 0 C0 -3.82, 0 -19.1, 0 -22.92" stroke="#ffffff" stroke-width="4" fill="none"></path></g></g><mask></mask></svg>