<?xml version="1.0" standalone="no"?>
<!DOCTYPE svg PUBLIC "-//W3C//DTD SVG 1.1//EN" "http://www.w3.org/Graphics/SVG/1.1/DTD/svg11.dtd">
<svg version="1.1" xmlns="http://www.w3.org/2000/svg" viewBox="0 0 44.44750537490199 58.70925701142255" width="44.44750537490199" height="58.70925701142255"><!-- svg-source:excalidraw --><metadata></metadata><defs><style class="style-fonts">
      </style></defs><g stroke-linecap="round"><g transform="translate(34.39859857056581 35.56431582901109) rotate(179.17752526943138 -6.06667567777049 5.806399401433964)"><path d="M0 0 C-2.02 1.94, -10.11 9.68, -12.13 11.61 M0 0 C-2.02 1.94, -10.11 9.68, -12.13 11.61" stroke="#ffffff" stroke-width="4" fill="none"></path></g></g><mask></mask><g stroke-linecap="round"><g transform="translate(34.62947325965797 10.001306087100374) rotate(179.17752526943138 -0.18196788475597714 12.67549660716736)"><path d="M0 0 C-0.06 4.23, -0.3 21.13, -0.36 25.35 M0 0 C-0.06 4.23, -0.3 21.13, -0.36 25.35" stroke="#ffffff" stroke-width="4" fill="none"></path></g></g><mask></mask><g stroke-linecap="round"><g transform="translate(10 11.266666972580197) rotate(0 0 18.721295019421177)"><path d="M0 0 C0 6.24, 0 31.2, 0 37.44 M0 0 C0 6.24, 0 31.2, 0 37.44" stroke="#ffffff" stroke-width="4" fill="none"></path></g></g><mask></mask></svg>