<?xml version="1.0" standalone="no"?>
<!DOCTYPE svg PUBLIC "-//W3C//DTD SVG 1.1//EN" "http://www.w3.org/Graphics/SVG/1.1/DTD/svg11.dtd">
<svg version="1.1" xmlns="http://www.w3.org/2000/svg" viewBox="0 0 56.98993469184643 57.73985099732454" width="56.98993469184643" height="57.73985099732454"><!-- svg-source:excalidraw --><metadata></metadata><defs><style class="style-fonts">
      </style></defs><g stroke-linecap="round"><g transform="translate(22.330321148052462 35.78620458255318) rotate(538.222684015558 -6.257868583196796 5.881193849916144)"><path d="M0 0 C-2.09 1.96, -10.43 9.8, -12.52 11.76 M0 0 C-2.09 1.96, -10.43 9.8, -12.52 11.76" stroke="#ffffff" stroke-width="4" fill="none"></path></g></g><mask></mask><g stroke-linecap="round"><g transform="translate(22.907042686771092 10.523460015312594) rotate(538.222684015558 -0.3856023494854526 12.426771910056232)"><path d="M0 0 C-0.13 4.14, -0.64 20.71, -0.77 24.85 M0 0 C-0.13 4.14, -0.64 20.71, -0.77 24.85" stroke="#ffffff" stroke-width="4" fill="none"></path></g></g><mask></mask><g stroke-linecap="round"><g transform="translate(34.301233196070825 10) rotate(0 6.313939239782485 6.313939239782485)"><path d="M0 0 C2.1 2.1, 10.52 10.52, 12.63 12.63 M0 0 C2.1 2.1, 10.52 10.52, 12.63 12.63" stroke="#ffffff" stroke-width="4" fill="none"></path></g></g><mask></mask><g stroke-linecap="round"><g transform="translate(46.98993469184643 22.946148047372844) rotate(0 -12.396851425187378 12.396851425187378)"><path d="M0 0 C-4.13 4.13, -20.66 20.66, -24.79 24.79 M0 0 C-4.13 4.13, -20.66 20.66, -24.79 24.79" stroke="#ffffff" stroke-width="4" fill="none"></path></g></g><mask></mask></svg>