<?xml version="1.0" standalone="no"?>
<!DOCTYPE svg PUBLIC "-//W3C//DTD SVG 1.1//EN" "http://www.w3.org/Graphics/SVG/1.1/DTD/svg11.dtd">
<svg version="1.1" xmlns="http://www.w3.org/2000/svg" viewBox="0 0 44.290656005528035 58.58384259032482" width="44.290656005528035" height="58.58384259032482"><!-- svg-source:excalidraw --><metadata></metadata><defs><style class="style-fonts">
      </style></defs><g stroke-linecap="round"><g transform="translate(10 48.58384259032482) rotate(0 0 -18.795391589165092)"><path d="M0 0 C0 -6.27, 0 -31.33, 0 -37.59 M0 0 C0 -6.27, 0 -31.33, 0 -37.59" stroke="#ffffff" stroke-width="4" fill="none"></path></g></g><mask></mask><g stroke-linecap="round"><g transform="translate(22.069917212663313 48.43776935472397) rotate(0 0.006784314061860641 -6.047894232646286)"><path d="M0 0 C0 -2.02, 0.01 -10.08, 0.01 -12.1 M0 0 C0 -2.02, 0.01 -10.08, 0.01 -12.1" stroke="#ffffff" stroke-width="4" fill="none"></path></g></g><mask></mask><g stroke-linecap="round"><g transform="translate(22.249305803537027 35.323250597654805) rotate(0 5.861655251272623 -5.86812693372417)"><path d="M0 0 C1.95 -1.96, 9.77 -9.78, 11.72 -11.74 M0 0 C1.95 -1.96, 9.77 -9.78, 11.72 -11.74" stroke="#ffffff" stroke-width="4" fill="none"></path></g></g><mask></mask><g stroke-linecap="round"><g transform="translate(34.290656005528035 23.252998951616064) rotate(0 0 -6.626499475808032)"><path d="M0 0 C0 -2.21, 0 -11.04, 0 -13.25 M0 0 C0 -2.21, 0 -11.04, 0 -13.25" stroke="#ffffff" stroke-width="4" fill="none"></path></g></g><mask></mask></svg>