<?xml version="1.0" standalone="no"?>
<!DOCTYPE svg PUBLIC "-//W3C//DTD SVG 1.1//EN" "http://www.w3.org/Graphics/SVG/1.1/DTD/svg11.dtd">
<svg version="1.1" xmlns="http://www.w3.org/2000/svg" viewBox="0 0 32.3440812551853 58.212460678357274" width="32.3440812551853" height="58.212460678357274"><!-- svg-source:excalidraw --><metadata></metadata><defs><style class="style-fonts">
      </style></defs><g stroke-linecap="round"><g transform="translate(10 48.212460678357274) rotate(0 0.006784314061860641 -6.047894232646286)"><path d="M0 0 C0 -2.02, 0.01 -10.08, 0.01 -12.1 M0 0 C0 -2.02, 0.01 -10.08, 0.01 -12.1" stroke="#9c36b5" stroke-width="4" fill="none"></path></g></g><mask></mask><g stroke-linecap="round"><g transform="translate(10.179388590873714 35.09794192128811) rotate(0 5.861655251272623 -5.86812693372417)"><path d="M0 0 C1.95 -1.96, 9.77 -9.78, 11.72 -11.74 M0 0 C1.95 -1.96, 9.77 -9.78, 11.72 -11.74" stroke="#9c36b5" stroke-width="4" fill="none"></path></g></g><mask></mask><g stroke-linecap="round"><g transform="translate(22.3440812551853 23.02769027524937) rotate(0 0 -6.513845137624685)"><path d="M0 0 C0 -2.17, 0 -10.86, 0 -13.03 M0 0 C0 -2.17, 0 -10.86, 0 -13.03" stroke="#9c36b5" stroke-width="4" fill="none"></path></g></g><mask></mask></svg>