<?xml version="1.0" standalone="no"?>
<!DOCTYPE svg PUBLIC "-//W3C//DTD SVG 1.1//EN" "http://www.w3.org/Graphics/SVG/1.1/DTD/svg11.dtd">
<svg version="1.1" xmlns="http://www.w3.org/2000/svg" viewBox="0 0 69.54557240927079 57.039248432985005" width="69.54557240927079" height="57.039248432985005"><!-- svg-source:excalidraw --><metadata></metadata><defs><style class="style-fonts">
      </style></defs><g stroke-linecap="round"><g transform="translate(22.506323976285785 10) rotate(0 18.519624216492502 18.519624216492502)"><path d="M0 0 C6.17 6.17, 30.87 30.87, 37.04 37.04 M0 0 C6.17 6.17, 30.87 30.87, 37.04 37.04" stroke="#ffffff" stroke-width="4" fill="none"></path></g></g><mask></mask><g stroke-linecap="round"><g transform="translate(10 10.64187180459885) rotate(0 12.483710971562687 12.100523725290714)"><path d="M0 0 C4.16 4.03, 20.81 20.17, 24.97 24.2 M0 0 C4.16 4.03, 20.81 20.17, 24.97 24.2" stroke="#ffffff" stroke-width="4" fill="none"></path></g></g><mask></mask><g stroke-linecap="round"><g transform="translate(35.012648062300286 35.41988322945326) rotate(0 0 5.809682599609914)"><path d="M0 0 C0 1.94, 0 9.68, 0 11.62 M0 0 C0 1.94, 0 9.68, 0 11.62" stroke="#ffffff" stroke-width="4" fill="none"></path></g></g><mask></mask></svg>