<?xml version="1.0" standalone="no"?>
<!DOCTYPE svg PUBLIC "-//W3C//DTD SVG 1.1//EN" "http://www.w3.org/Graphics/SVG/1.1/DTD/svg11.dtd">
<svg version="1.1" xmlns="http://www.w3.org/2000/svg" viewBox="0 0 56.96708187164768 69.16723037072279" width="56.96708187164768" height="69.16723037072279"><!-- svg-source:excalidraw --><metadata></metadata><defs><style class="style-fonts">
      </style></defs><g stroke-linecap="round"><g transform="translate(47.00530529986008 46.956846967790625) rotate(180.85003482719833 -12.483710971562687 -12.100523725290714)"><path d="M0 0 C-4.16 -4.03, -20.81 -20.17, -24.97 -24.2 M0 0 C-4.16 -4.03, -20.81 -20.17, -24.97 -24.2" stroke="#ffffff" stroke-width="4" fill="none"></path></g></g><mask></mask><g stroke-linecap="round"><g transform="translate(47.052006482053 59.166600392378314) rotate(180.85003482719833 -0.08492461040486887 -5.72384165479798)"><path d="M0 0 C-0.03 -1.91, -0.14 -9.54, -0.17 -11.45 M0 0 C-0.03 -1.91, -0.14 -9.54, -0.17 -11.45" stroke="#ffffff" stroke-width="4" fill="none"></path></g></g><mask></mask><g stroke-linecap="round"><g transform="translate(35.11218453140009 47.29557900093823) rotate(360.8500348271983 -12.483710971562687 -12.100523725290714)"><path d="M0 0 C-4.16 -4.03, -20.81 -20.17, -24.97 -24.2 M0 0 C-4.16 -4.03, -20.81 -20.17, -24.97 -24.2" stroke="#ffffff" stroke-width="4" fill="none"></path></g></g><mask></mask><g stroke-linecap="round"><g transform="translate(10.274458887107357 22.331055453170848) rotate(360.8500348271983 -0.18296587886516136 -6.164509746317435)"><path d="M0 0 C-0.06 -2.05, -0.3 -10.27, -0.37 -12.33 M0 0 C-0.06 -2.05, -0.3 -10.27, -0.37 -12.33" stroke="#ffffff" stroke-width="4" fill="none"></path></g></g><mask></mask></svg>