<?xml version="1.0" standalone="no"?>
<!DOCTYPE svg PUBLIC "-//W3C//DTD SVG 1.1//EN" "http://www.w3.org/Graphics/SVG/1.1/DTD/svg11.dtd">
<svg version="1.1" xmlns="http://www.w3.org/2000/svg" viewBox="0 0 56.99100444450323 68.68801254916161" width="56.99100444450323" height="68.68801254916161"><!-- svg-source:excalidraw --><metadata></metadata><defs><style class="style-fonts">
      </style></defs><g stroke-linecap="round"><g transform="translate(34.769458167270386 46.52165326991508) rotate(0 -0.06357667743304773 -5.945986522548992)"><path d="M0 0 C-0.02 -1.98, -0.11 -9.91, -0.13 -11.89 M0 0 C-0.02 -1.98, -0.11 -9.91, -0.13 -11.89" stroke="#ffffff" stroke-width="4" fill="none"></path></g></g><mask></mask><g stroke-linecap="round"><g transform="translate(34.7649744647797 33.92752160886721) rotate(0 5.897969957402893 -5.736381739392073)"><path d="M0 0 C1.97 -1.91, 9.83 -9.56, 11.8 -11.47 M0 0 C1.97 -1.91, 9.83 -9.56, 11.8 -11.47" stroke="#ffffff" stroke-width="4" fill="none"></path></g></g><mask></mask><g stroke-linecap="round"><g transform="translate(46.99100444450323 21.86795094585159) rotate(0 0 -5.933975472925795)"><path d="M0 0 C0 -1.98, 0 -9.89, 0 -11.87 M0 0 C0 -1.98, 0 -9.89, 0 -11.87" stroke="#ffffff" stroke-width="4" fill="none"></path></g></g><mask></mask><g stroke-linecap="round"><g transform="translate(34.82319412972447 58.50414383773841) rotate(360.85003482719833 -12.483710971562687 -12.100523725290714)"><path d="M0 0 C-4.16 -4.03, -20.81 -20.17, -24.97 -24.2 M0 0 C-4.16 -4.03, -20.81 -20.17, -24.97 -24.2" stroke="#ffffff" stroke-width="4" fill="none"></path></g></g><mask></mask><g stroke-linecap="round"><g transform="translate(10.086188745960499 33.54229560632393) rotate(360.85003482719833 0 -5.809682599609914)"><path d="M0 0 C0 -1.94, 0 -9.68, 0 -11.62 M0 0 C0 -1.94, 0 -9.68, 0 -11.62" stroke="#ffffff" stroke-width="4" fill="none"></path></g></g><mask></mask></svg>