<?xml version="1.0" standalone="no"?>
<!DOCTYPE svg PUBLIC "-//W3C//DTD SVG 1.1//EN" "http://www.w3.org/Graphics/SVG/1.1/DTD/svg11.dtd">
<svg version="1.1" xmlns="http://www.w3.org/2000/svg" viewBox="0 0 32.413386096473005 44.41528697188551" width="32.413386096473005" height="44.41528697188551"><!-- svg-source:excalidraw --><metadata></metadata><defs><style class="style-fonts">
      </style></defs><g stroke-linecap="round"><g transform="translate(-1.9472641352313076 22.120495631180347) rotate(89.99999999999994 12.10002711854986 0.14235326021798755)"><path d="M0 0 C4.03 0.05, 20.17 0.24, 24.2 0.28 M0 0 C4.03 0.05, 20.17 0.24, 24.2 0.28" stroke="#9c36b5" stroke-width="4" fill="none"></path></g></g><mask></mask><g stroke-linecap="round"><g transform="translate(9.87144249236917 22.243819767528294) rotate(89.99999999999994 6.150012355993567 6.021454848363192)"><path d="M0 0 C2.05 2.01, 10.25 10.04, 12.3 12.04 M0 0 C2.05 2.01, 10.25 10.04, 12.3 12.04" stroke="#9c36b5" stroke-width="4" fill="none"></path></g></g><mask></mask><g stroke-linecap="round"><g transform="translate(10.7023668748825 21.711019221590504) rotate(89.99999999999994 5.9197883646106675 -5.791230856980292)"><path d="M0 0 C1.97 -1.93, 9.87 -9.65, 11.84 -11.58 M0 0 C1.97 -1.93, 9.87 -9.65, 11.84 -11.58" stroke="#9c36b5" stroke-width="4" fill="none"></path></g></g><mask></mask></svg>