<?xml version="1.0" standalone="no"?>
<!DOCTYPE svg PUBLIC "-//W3C//DTD SVG 1.1//EN" "http://www.w3.org/Graphics/SVG/1.1/DTD/svg11.dtd">
<svg version="1.1" xmlns="http://www.w3.org/2000/svg" viewBox="0 0 32.86048824453428 44.15846698003952" width="32.86048824453428" height="44.15846698003952"><!-- svg-source:excalidraw --><metadata></metadata><defs><style class="style-fonts">
      </style></defs><g stroke-linecap="round"><g transform="translate(10 10) rotate(180 0 5.922649004355662)"><path d="M0 0 C0 1.97, 0 9.87, 0 11.85 M0 0 C0 1.97, 0 9.87, 0 11.85" stroke="#9c36b5" stroke-width="4" fill="none"></path></g></g><mask></mask><g stroke-linecap="round"><g transform="translate(22.86048824453428 22.78230852726665) rotate(180 0 5.284649464780159)"><path d="M0 0 C0 1.76, 0 8.81, 0 10.57 M0 0 C0 1.76, 0 8.81, 0 10.57" stroke="#9c36b5" stroke-width="4" fill="none"></path></g></g><mask></mask><g stroke-linecap="round"><g transform="translate(22.02451631191434 34.15846698003952) rotate(180 -5.919047022466657 -5.919047022466657)"><path d="M0 0 C-1.97 -1.97, -9.87 -9.87, -11.84 -11.84 M0 0 C-1.97 -1.97, -9.87 -9.87, -11.84 -11.84" stroke="#9c36b5" stroke-width="4" fill="none"></path></g></g><mask></mask><g stroke-linecap="round"><g transform="translate(22.33399505214402 22.11023556814689) rotate(180 -5.919047022466657 -5.919047022466657)"><path d="M0 0 C-1.97 -1.97, -9.87 -9.87, -11.84 -11.84 M0 0 C-1.97 -1.97, -9.87 -9.87, -11.84 -11.84" stroke="#9c36b5" stroke-width="4" fill="none"></path></g></g><mask></mask></svg>