<?xml version="1.0" standalone="no"?>
<!DOCTYPE svg PUBLIC "-//W3C//DTD SVG 1.1//EN" "http://www.w3.org/Graphics/SVG/1.1/DTD/svg11.dtd">
<svg version="1.1" xmlns="http://www.w3.org/2000/svg" viewBox="0 0 57.32484156062765 56.92561506720358" width="57.32484156062765" height="56.92561506720358"><!-- svg-source:excalidraw --><metadata></metadata><defs><style class="style-fonts">
      </style></defs><g stroke-linecap="round"><g transform="translate(34.74943013779193 22.247999534698465) rotate(0 0 5.952260051664325)"><path d="M0 0 C0 1.98, 0 9.92, 0 11.9 M0 0 C0 1.98, 0 9.92, 0 11.9" stroke="#ffffff" stroke-width="4" fill="none"></path></g></g><mask></mask><g stroke-linecap="round"><g transform="translate(34.83631636537757 34.51632101254654) rotate(0 6.244262597625038 6.2046470273285195)"><path d="M0 0 C2.08 2.07, 10.41 10.34, 12.49 12.41 M0 0 C2.08 2.07, 10.41 10.34, 12.49 12.41" stroke="#ffffff" stroke-width="4" fill="none"></path></g></g><mask></mask><g stroke-linecap="round"><g transform="translate(22.531960430143954 10) rotate(0 6.094936751881505 6.056268551822541)"><path d="M0 0 C2.03 2.02, 10.16 10.09, 12.19 12.11 M0 0 C2.03 2.02, 10.16 10.09, 12.19 12.11" stroke="#ffffff" stroke-width="4" fill="none"></path></g></g><mask></mask><g stroke-linecap="round"><g transform="translate(35.012648062300286 46.81860973748553) rotate(0 -12.44158771689763 -12.437509762611171)"><path d="M0 0 C-4.15 -4.15, -20.74 -20.73, -24.88 -24.88 M0 0 C-4.15 -4.15, -20.74 -20.73, -24.88 -24.88" stroke="#ffffff" stroke-width="4" fill="none"></path></g></g><mask></mask><g stroke-linecap="round"><g transform="translate(10 22.040598312632937) rotate(0 0 -5.809682599609914)"><path d="M0 0 C0 -1.94, 0 -9.68, 0 -11.62 M0 0 C0 -1.94, 0 -9.68, 0 -11.62" stroke="#ffffff" stroke-width="4" fill="none"></path></g></g><mask></mask></svg>