<?xml version="1.0" standalone="no"?>
<!DOCTYPE svg PUBLIC "-//W3C//DTD SVG 1.1//EN" "http://www.w3.org/Graphics/SVG/1.1/DTD/svg11.dtd">
<svg version="1.1" xmlns="http://www.w3.org/2000/svg" viewBox="0 0 44.415286971887326 32.413386096473005" width="44.415286971887326" height="32.413386096473005"><!-- svg-source:excalidraw --><metadata></metadata><defs><style class="style-fonts">
      </style></defs><g stroke-linecap="round"><g transform="translate(34.25246519903885 10.29511624353745) rotate(0 -12.10002711854986 -0.14235326021798755)"><path d="M0 0 C-4.03 -0.05, -20.17 -0.24, -24.2 -0.28 M0 0 C-4.03 -0.05, -20.17 -0.24, -24.2 -0.28" stroke="#9c36b5" stroke-width="4" fill="none"></path></g></g><mask></mask><g stroke-linecap="round"><g transform="translate(22.300024711987135 22.042909696726383) rotate(0 -6.150012355993567 -6.021454848363192)"><path d="M0 0 C-2.05 -2.01, -10.25 -10.04, -12.3 -12.04 M0 0 C-2.05 -2.01, -10.25 -10.04, -12.3 -12.04" stroke="#9c36b5" stroke-width="4" fill="none"></path></g></g><mask></mask><g stroke-linecap="round"><g transform="translate(34.415286971887326 10.830924382512421) rotate(0 -5.9197883646106675 5.791230856980292)"><path d="M0 0 C-1.97 1.93, -9.87 9.65, -11.84 11.58 M0 0 C-1.97 1.93, -9.87 9.65, -11.84 11.58" stroke="#9c36b5" stroke-width="4" fill="none"></path></g></g><mask></mask></svg>