<?xml version="1.0" standalone="no"?>
<!DOCTYPE svg PUBLIC "-//W3C//DTD SVG 1.1//EN" "http://www.w3.org/Graphics/SVG/1.1/DTD/svg11.dtd">
<svg version="1.1" xmlns="http://www.w3.org/2000/svg" viewBox="0 0 44.67367442919567 57.45308813102474" width="44.67367442919567" height="57.45308813102474"><!-- svg-source:excalidraw --><metadata></metadata><defs><style class="style-fonts">
      </style></defs><g stroke-linecap="round"><g transform="translate(10 10) rotate(0 0 18.72654383077679)"><path d="M0 0 C0 6.24, 0 31.21, 0 37.45 M0 0 C0 6.24, 0 31.21, 0 37.45" stroke="#ffffff" stroke-width="4" fill="none"></path></g></g><mask></mask><g stroke-linecap="round"><g transform="translate(34.67367442919567 10.000000131024535) rotate(0 -6.465116380952622 6.242181333333519)"><path d="M0 0 C-2.16 2.08, -10.78 10.4, -12.93 12.48 M0 0 C-2.16 2.08, -10.78 10.4, -12.93 12.48" stroke="#ffffff" stroke-width="4" fill="none"></path></g></g><mask></mask><g stroke-linecap="round"><g transform="translate(21.520506619670414 22.707297845311587) rotate(0 6.0192462857144164 6.130713809523968)"><path d="M0 0 C2.01 2.04, 10.03 10.22, 12.04 12.26 M0 0 C2.01 2.04, 10.03 10.22, 12.04 12.26" stroke="#ffffff" stroke-width="4" fill="none"></path></g></g><mask></mask><g stroke-linecap="round"><g transform="translate(34.00486928633654 35.191660511976806) rotate(0 -6.242181333333974 6.130713809523968)"><path d="M0 0 C-2.08 2.04, -10.4 10.22, -12.48 12.26 M0 0 C-2.08 2.04, -10.4 10.22, -12.48 12.26" stroke="#ffffff" stroke-width="4" fill="none"></path></g></g><mask></mask></svg>