<?xml version="1.0" standalone="no"?>
<!DOCTYPE svg PUBLIC "-//W3C//DTD SVG 1.1//EN" "http://www.w3.org/Graphics/SVG/1.1/DTD/svg11.dtd">
<svg version="1.1" xmlns="http://www.w3.org/2000/svg" viewBox="0 0 46.08897647939921 57.45308830747672" width="46.08897647939921" height="57.45308830747672"><!-- svg-source:excalidraw --><metadata></metadata><defs><style class="style-fonts">
      </style></defs><g stroke-linecap="round"><g transform="translate(23.153167809527076 10) rotate(0 -6.465116380952622 6.242181333333519)"><path d="M0 0 C-2.16 2.08, -10.78 10.4, -12.93 12.48 M0 0 C-2.16 2.08, -10.78 10.4, -12.93 12.48" stroke="#ffffff" stroke-width="4" fill="none"></path></g></g><mask></mask><g stroke-linecap="round"><g transform="translate(10.000000000001819 22.70729771428705) rotate(0 6.0192462857144164 6.130713809523968)"><path d="M0 0 C2.01 2.04, 10.03 10.22, 12.04 12.26 M0 0 C2.01 2.04, 10.03 10.22, 12.04 12.26" stroke="#ffffff" stroke-width="4" fill="none"></path></g></g><mask></mask><g stroke-linecap="round"><g transform="translate(22.48436266666795 35.19166038095227) rotate(0 -6.242181333333974 6.130713809523968)"><path d="M0 0 C-2.08 2.04, -10.4 10.22, -12.48 12.26 M0 0 C-2.08 2.04, -10.4 10.22, -12.48 12.26" stroke="#ffffff" stroke-width="4" fill="none"></path></g></g><mask></mask><g stroke-linecap="round"><g transform="translate(36.08897647939921 10.000000307477421) rotate(0 -6.465116380952622 6.242181333333519)"><path d="M0 0 C-2.16 2.08, -10.78 10.4, -12.93 12.48 M0 0 C-2.16 2.08, -10.78 10.4, -12.93 12.48" stroke="#ffffff" stroke-width="4" fill="none"></path></g></g><mask></mask><g stroke-linecap="round"><g transform="translate(22.93580866987213 22.707298021764473) rotate(0 6.0192462857144164 6.130713809523968)"><path d="M0 0 C2.01 2.04, 10.03 10.22, 12.04 12.26 M0 0 C2.01 2.04, 10.03 10.22, 12.04 12.26" stroke="#ffffff" stroke-width="4" fill="none"></path></g></g><mask></mask><g stroke-linecap="round"><g transform="translate(35.42017133653826 35.19166068842878) rotate(0 -6.242181333333974 6.130713809523968)"><path d="M0 0 C-2.08 2.04, -10.4 10.22, -12.48 12.26 M0 0 C-2.08 2.04, -10.4 10.22, -12.48 12.26" stroke="#ffffff" stroke-width="4" fill="none"></path></g></g><mask></mask></svg>