<?xml version="1.0" standalone="no"?>
<!DOCTYPE svg PUBLIC "-//W3C//DTD SVG 1.1//EN" "http://www.w3.org/Graphics/SVG/1.1/DTD/svg11.dtd">
<svg version="1.1" xmlns="http://www.w3.org/2000/svg" viewBox="0 0 44.74155516088558 44.10753588994612" width="44.74155516088558" height="44.10753588994612"><!-- svg-source:excalidraw --><metadata></metadata><defs><style class="style-fonts">
      </style></defs><g stroke-linecap="round"><g transform="translate(22.35718309443473 10) rotate(0 6.177746142798242 6.183362868964423)"><path d="M0 0 C2.06 2.06, 10.3 10.31, 12.36 12.37 M0 0 C2.06 2.06, 10.3 10.31, 12.36 12.37" stroke="#9c36b5" stroke-width="4" fill="none"></path></g></g><mask></mask><g stroke-linecap="round"><g transform="translate(34.74155516088558 22.495829344471986) rotate(0 -6.246596057822444 5.754865245012752)"><path d="M0 0 C-2.08 1.92, -10.41 9.59, -12.49 11.51 M0 0 C-2.08 1.92, -10.41 9.59, -12.49 11.51" stroke="#9c36b5" stroke-width="4" fill="none"></path></g></g><mask></mask><g stroke-linecap="round"><g transform="translate(22.037536230137448 34.10753588994612) rotate(0 -6.018768115068724 -0.08841227990001244)"><path d="M0 0 C-2.01 -0.03, -10.03 -0.15, -12.04 -0.18 M0 0 C-2.01 -0.03, -10.03 -0.15, -12.04 -0.18" stroke="#9c36b5" stroke-width="4" fill="none"></path></g></g><mask></mask></svg>