<?xml version="1.0" standalone="no"?>
<!DOCTYPE svg PUBLIC "-//W3C//DTD SVG 1.1//EN" "http://www.w3.org/Graphics/SVG/1.1/DTD/svg11.dtd">
<svg version="1.1" xmlns="http://www.w3.org/2000/svg" viewBox="0 0 33.14004620819833 57.415724796216864" width="33.14004620819833" height="57.415724796216864"><!-- svg-source:excalidraw --><metadata></metadata><defs><style class="style-fonts">
      </style></defs><g stroke-linecap="round"><g transform="translate(23.140046208198328 10) rotate(0 -6.458666780299609 6.235954132703)"><path d="M0 0 C-2.15 2.08, -10.76 10.39, -12.92 12.47 M0 0 C-2.15 2.08, -10.76 10.39, -12.92 12.47" stroke="#9c36b5" stroke-width="4" fill="none"></path></g></g><mask></mask><g stroke-linecap="round"><g transform="translate(10 22.694620913002836) rotate(0 6.013241485106391 6.124597808904696)"><path d="M0 0 C2 2.04, 10.02 10.21, 12.03 12.25 M0 0 C2 2.04, 10.02 10.21, 12.03 12.25" stroke="#9c36b5" stroke-width="4" fill="none"></path></g></g><mask></mask><g stroke-linecap="round"><g transform="translate(22.471908265406455 35.16652917840747) rotate(0 -6.2359541327032275 6.124597808904696)"><path d="M0 0 C-2.08 2.04, -10.39 10.21, -12.47 12.25 M0 0 C-2.08 2.04, -10.39 10.21, -12.47 12.25" stroke="#9c36b5" stroke-width="4" fill="none"></path></g></g><mask></mask></svg>