<?xml version="1.0" standalone="no"?>
<!DOCTYPE svg PUBLIC "-//W3C//DTD SVG 1.1//EN" "http://www.w3.org/Graphics/SVG/1.1/DTD/svg11.dtd">
<svg version="1.1" xmlns="http://www.w3.org/2000/svg" viewBox="0 0 44.96044859905942 57.4479866380118" width="44.96044859905942" height="57.4479866380118"><!-- svg-source:excalidraw --><metadata></metadata><defs><style class="style-fonts">
      </style></defs><g stroke-linecap="round"><g transform="translate(10 10.036253516120041) rotate(0 0.04489771228054451 18.70586656094588)"><path d="M0 0 C0.01 6.24, 0.07 31.18, 0.09 37.41 M0 0 C0.01 6.24, 0.07 31.18, 0.09 37.41" stroke="#ffffff" stroke-width="4" fill="none"></path></g></g><mask></mask><g stroke-linecap="round"><g transform="translate(22.96834374111404 22.28311351935963) rotate(179.17752526943138 6.040133878129382 -6.098519677937702)"><path d="M0 0 C2.01 -2.03, 10.07 -10.16, 12.08 -12.2 M0 0 C2.01 -2.03, 10.07 -10.16, 12.08 -12.2" stroke="#ffffff" stroke-width="4" fill="none"></path></g></g><mask></mask><g stroke-linecap="round"><g transform="translate(23.021970990521368 47.42606511043209) rotate(179.17752526943138 0.06936425818958014 -12.239139963776779)"><path d="M0 0 C0.02 -4.08, 0.12 -20.4, 0.14 -24.48 M0 0 C0.02 -4.08, 0.12 -20.4, 0.14 -24.48" stroke="#ffffff" stroke-width="4" fill="none"></path></g></g><mask></mask></svg>