<?xml version="1.0" standalone="no"?>
<!DOCTYPE svg PUBLIC "-//W3C//DTD SVG 1.1//EN" "http://www.w3.org/Graphics/SVG/1.1/DTD/svg11.dtd">
<svg version="1.1" xmlns="http://www.w3.org/2000/svg" viewBox="0 0 43.52970354305762 44.71079797058246" width="43.52970354305762" height="44.71079797058246"><!-- svg-source:excalidraw --><metadata></metadata><defs><style class="style-fonts">
      </style></defs><g stroke-linecap="round"><g transform="translate(21.419588828657652 34.71079797058246) rotate(449.99999999999994 -5.709794414328826 -5.709794414328371)"><path d="M0 0 C-1.9 -1.9, -9.52 -9.52, -11.42 -11.42 M0 0 C-1.9 -1.9, -9.52 -9.52, -11.42 -11.42" stroke="#9c36b5" stroke-width="4" fill="none"></path></g></g><mask></mask><g stroke-linecap="round"><g transform="translate(28.23546128759699 28.225197603615015) rotate(449.99999999999994 0 -5.294242255460631)"><path d="M0 0 C0 -1.76, 0 -8.82, 0 -10.59 M0 0 C0 -1.76, 0 -8.82, 0 -10.59" stroke="#9c36b5" stroke-width="4" fill="none"></path></g></g><mask></mask><g stroke-linecap="round"><g transform="translate(28.378306701117253 16.44511202324975) rotate(449.99999999999994 -6.4451120232502035 0)"><path d="M0 0 C-2.15 0, -10.74 0, -12.89 0 M0 0 C-2.15 0, -10.74 0, -12.89 0" stroke="#9c36b5" stroke-width="4" fill="none"></path></g></g><mask></mask></svg>