<?xml version="1.0" standalone="no"?>
<!DOCTYPE svg PUBLIC "-//W3C//DTD SVG 1.1//EN" "http://www.w3.org/Graphics/SVG/1.1/DTD/svg11.dtd">
<svg version="1.1" xmlns="http://www.w3.org/2000/svg" viewBox="0 0 57.40980176733774 81.11644391535629" width="57.40980176733774" height="81.11644391535629"><!-- svg-source:excalidraw --><metadata></metadata><defs><style class="style-fonts">
      </style></defs><g stroke-linecap="round"><g transform="translate(22.348699632095304 21.891973045097984) rotate(180 -0.06357667743304773 -5.945986522548992)"><path d="M0 0 C-0.02 -1.98, -0.11 -9.91, -0.13 -11.89 M0 0 C-0.02 -1.98, -0.11 -9.91, -0.13 -11.89" stroke="#ffffff" stroke-width="4" fill="none"></path></g></g><mask></mask><g stroke-linecap="round"><g transform="translate(10.430090064914111 34.06689513983292) rotate(180 5.897969957402893 -5.736381739392073)"><path d="M0 0 C1.97 -1.91, 9.83 -9.56, 11.8 -11.47 M0 0 C1.97 -1.91, 9.83 -9.56, 11.8 -11.47" stroke="#ffffff" stroke-width="4" fill="none"></path></g></g><mask></mask><g stroke-linecap="round"><g transform="translate(10 46.52165326991235) rotate(180 0 -5.933975472925795)"><path d="M0 0 C0 -1.98, 0 -9.89, 0 -11.87 M0 0 C0 -1.98, 0 -9.89, 0 -11.87" stroke="#ffffff" stroke-width="4" fill="none"></path></g></g><mask></mask><g stroke-linecap="round"><g transform="translate(34.98756813632008 47.538184981071026) rotate(178.81881108667483 0 5.872917458889788)"><path d="M0 0 C0 1.96, 0 9.79, 0 11.75 M0 0 C0 1.96, 0 9.79, 0 11.75" stroke="#ffffff" stroke-width="4" fill="none"></path></g></g><mask></mask><g stroke-linecap="round"><g transform="translate(22.32644856900697 35.06674953233414) rotate(178.81881108667483 6.161027661623848 6.121940159999667)"><path d="M0 0 C2.05 2.04, 10.27 10.2, 12.32 12.24 M0 0 C2.05 2.04, 10.27 10.2, 12.32 12.24" stroke="#ffffff" stroke-width="4" fill="none"></path></g></g><mask></mask><g stroke-linecap="round"><g transform="translate(35.2605142180073 59.290601905920994) rotate(178.81881108667483 6.013692303471089 5.975539543803734)"><path d="M0 0 C2 1.99, 10.02 9.96, 12.03 11.95 M0 0 C2 1.99, 10.02 9.96, 12.03 11.95" stroke="#ffffff" stroke-width="4" fill="none"></path></g></g><mask></mask></svg>