<?xml version="1.0" standalone="no"?>
<!DOCTYPE svg PUBLIC "-//W3C//DTD SVG 1.1//EN" "http://www.w3.org/Graphics/SVG/1.1/DTD/svg11.dtd">
<svg version="1.1" xmlns="http://www.w3.org/2000/svg" viewBox="0 0 58.01942884588607 57.7398508977476" width="58.01942884588607" height="57.7398508977476"><!-- svg-source:excalidraw --><metadata></metadata><defs><style class="style-fonts">
      </style></defs><g stroke-linecap="round"><g transform="translate(10 47.739850804108755) rotate(0 0 -5.691597063093923)"><path d="M0 0 C0 -1.9, 0 -9.49, 0 -11.38 M0 0 C0 -1.9, 0 -9.49, 0 -11.38" stroke="#ffffff" stroke-width="4" fill="none"></path></g></g><mask></mask><g stroke-linecap="round"><g transform="translate(10.122669652375407 35.654498061971026) rotate(0 5.897969957402893 -5.736381739392073)"><path d="M0 0 C1.97 -1.91, 9.83 -9.56, 11.8 -11.47 M0 0 C1.97 -1.91, 9.83 -9.56, 11.8 -11.47" stroke="#ffffff" stroke-width="4" fill="none"></path></g></g><mask></mask><g stroke-linecap="round"><g transform="translate(22.348699632098942 23.594927398955406) rotate(0 -0.034771695870404074 -6.609663931878458)"><path d="M0 0 C-0.01 -2.2, -0.06 -11.02, -0.07 -13.22 M0 0 C-0.01 -2.2, -0.06 -11.02, -0.07 -13.22" stroke="#ffffff" stroke-width="4" fill="none"></path></g></g><mask></mask><g stroke-linecap="round"><g transform="translate(35.330727350110465 10) rotate(0 6.313939239782485 6.313939239782485)"><path d="M0 0 C2.1 2.1, 10.52 10.52, 12.63 12.63 M0 0 C2.1 2.1, 10.52 10.52, 12.63 12.63" stroke="#ffffff" stroke-width="4" fill="none"></path></g></g><mask></mask><g stroke-linecap="round"><g transform="translate(48.01942884588607 22.946148047372844) rotate(0 -12.396851425187378 12.396851425187378)"><path d="M0 0 C-4.13 4.13, -20.66 20.66, -24.79 24.79 M0 0 C-4.13 4.13, -20.66 20.66, -24.79 24.79" stroke="#ffffff" stroke-width="4" fill="none"></path></g></g><mask></mask></svg>