<?xml version="1.0" standalone="no"?>
<!DOCTYPE svg PUBLIC "-//W3C//DTD SVG 1.1//EN" "http://www.w3.org/Graphics/SVG/1.1/DTD/svg11.dtd">
<svg version="1.1" xmlns="http://www.w3.org/2000/svg" viewBox="0 0 45.05271931438983 56.02159873547225" width="45.05271931438983" height="56.02159873547225"><!-- svg-source:excalidraw --><metadata></metadata><defs><style class="style-fonts">
      </style></defs><g stroke-linecap="round"><g transform="translate(22.70401968229089 46.02159873547225) rotate(0 0 -5.691597063093923)"><path d="M0 0 C0 -1.9, 0 -9.49, 0 -11.38 M0 0 C0 -1.9, 0 -9.49, 0 -11.38" stroke="#ffffff" stroke-width="4" fill="none"></path></g></g><mask></mask><g stroke-linecap="round"><g transform="translate(22.8266893346663 33.936245993333614) rotate(0 5.897969957402893 -5.736381739392073)"><path d="M0 0 C1.97 -1.91, 9.83 -9.56, 11.8 -11.47 M0 0 C1.97 -1.91, 9.83 -9.56, 11.8 -11.47" stroke="#ffffff" stroke-width="4" fill="none"></path></g></g><mask></mask><g stroke-linecap="round"><g transform="translate(35.05271931438983 21.876675330317994) rotate(0 0 -5.933975472925795)"><path d="M0 0 C0 -1.98, 0 -9.89, 0 -11.87 M0 0 C0 -1.98, 0 -9.89, 0 -11.87" stroke="#ffffff" stroke-width="4" fill="none"></path></g></g><mask></mask><g stroke-linecap="round"><g transform="translate(10 46.01287435100403) rotate(0 0 -5.691597063093923)"><path d="M0 0 C0 -1.9, 0 -9.49, 0 -11.38 M0 0 C0 -1.9, 0 -9.49, 0 -11.38" stroke="#ffffff" stroke-width="4" fill="none"></path></g></g><mask></mask><g stroke-linecap="round"><g transform="translate(10.122669652373588 33.92752160886721) rotate(0 5.897969957402893 -5.736381739392073)"><path d="M0 0 C1.97 -1.91, 9.83 -9.56, 11.8 -11.47 M0 0 C1.97 -1.91, 9.83 -9.56, 11.8 -11.47" stroke="#ffffff" stroke-width="4" fill="none"></path></g></g><mask></mask><g stroke-linecap="round"><g transform="translate(22.348699632097123 21.86795094585159) rotate(0 0 -5.933975472925795)"><path d="M0 0 C0 -1.98, 0 -9.89, 0 -11.87 M0 0 C0 -1.98, 0 -9.89, 0 -11.87" stroke="#ffffff" stroke-width="4" fill="none"></path></g></g><mask></mask></svg>